<?xml version="1.0" encoding="utf-8"?>
<!-- Generator: Adobe Illustrator 24.0.1, SVG Export Plug-In . SVG Version: 6.00 Build 0)  -->
<svg version="1.1" id="Layer_1" xmlns="http://www.w3.org/2000/svg" xmlns:xlink="http://www.w3.org/1999/xlink" x="0px" y="0px"
	 viewBox="0 0 1200 1200" style="enable-background:new 0 0 1200 1200;" xml:space="preserve">
<style type="text/css">
	.st0{opacity:0.67;enable-background:new    ;}
	.st1{fill:#F3BBB8;}
	.st2{fill:#FFFFFF;}
	.st3{fill:#13223A;}
	.st4{fill:#F8B1AE;}
	.st5{opacity:0.5;}
	.st6{fill:#EC676D;}
	.st7{fill:#F6D1D0;}
</style>
<title>SVG-heartbrain</title>
<g>
	<g id="Layer_1_1_">
		<g class="st0">
			<ellipse class="st1" cx="610.5" cy="954.7" rx="261.2" ry="27.4"/>
		</g>
		<g>
			<path class="st2" d="M726.9,795.9c-1,0.4-2.2,0.2-3.1-0.5c-0.7-0.4-1.3-1-1.8-1.7c-0.6-1.1-1-2.3-1-3.5c-0.1-1.2-0.1-2.4,0-3.6
				v-1c0.1-5.3-0.3-10.6-1.1-15.9c-1-6.3-2.9-12.3-5.7-18c-1.5-2.9-3.3-5.7-5.4-8.2c-2.6-3.1-3.6-4.6-2.4-7c1.3-2.6,2.7-2.8,3.2-2.8
				c3.5-0.3,8.5,4.5,10.8,7.8c5.4,7.5,9.2,16.1,11.3,25.1c1.7,7.6,1.6,15.5-0.3,23.1C730.4,792.6,728.7,795.2,726.9,795.9z"/>
		</g>
		<g>
			<path class="st3" d="M643.2,834.7c-61.5,0-119.2-17.5-164.5-50.2c-8.3-6.2-9.9-17.9-3.7-26.2c6-8.1,17.4-9.9,25.6-4.1
				c88.5,64,231.7,55.5,319.1-18.8c10-8.5,26.3-26,22.9-47.3c-2.7-16.7-12.6-29.8-25.2-33.3c-26.8-7.5-55.1-8.1-82.2-1.5
				c-10.1,2.2-20.1-4.2-22.3-14.3c-2.2-9.8,3.8-19.6,13.6-22.1c33.2-8,68-7.4,100.9,1.9c26.7,7.4,47.1,32.3,52.1,63.4
				c4.6,28.7-8.3,58.5-35.6,81.7c-48.3,41.1-112.3,66-180.4,70.3C656.8,834.5,650,834.7,643.2,834.7z"/>
		</g>
		<g>
			<path class="st3" d="M555,834.7c-6.8,0-13.6-0.2-20.4-0.6c-68-4.3-132.1-29.2-180.4-70.3c-27.2-23.2-40.2-52.9-35.6-81.7
				c5-31.1,25.5-56,52.1-63.4c32.9-9.2,67.6-9.9,100.9-1.9c10.1,2.2,16.5,12.2,14.3,22.3c-2.2,10.1-12.2,16.5-22.3,14.3
				c-0.2,0-0.4-0.1-0.7-0.2c-27.1-6.5-55.4-6-82.2,1.5c-12.6,3.5-22.5,16.6-25.2,33.3c-3.4,21.3,12.9,38.7,22.9,47.3
				c87.4,74.3,230.6,82.8,319.1,18.8c8.3-6.2,20-4.5,26.2,3.7c6.2,8.3,4.5,20-3.7,26.2c-0.2,0.1-0.4,0.3-0.5,0.4
				C674.2,817.1,616.4,834.7,555,834.7z"/>
		</g>
		<g>
			<path class="st4" d="M868,564.7c-13.5,10.5-26.9,9.8-32.1,9c-7.6-14.9-21.1-22.3-29.4-24.5c-3.1-0.8-6.3,1.1-7,4.2s1.1,6.3,4.2,7
				c0.3,0.1,26.4,7.1,26.4,38.3c0,29.1-16.9,31-18.7,31.1c-3.2,0.1-5.7,2.8-5.6,6c0,0.2,0,0.4,0,0.6c0.1,0.6,1.7,13.5-8.1,15.2
				c-5.9,1-8.9-1.4-10.2-3.1c0.8-3.3,1.2-6.6,1.2-10c0-15.3-11.6-12.4-11.6,0c0,14-12.6,39.6-33.2,39.6c-25.3,0-33.3-13.3-33.5-13.8
				c-1.5-2.8-5-3.9-7.9-2.3c-1.2,0.6-2.1,1.6-2.6,2.9c-2.7,6.4-6.2,10.2-10.6,11.3c-7.7,1.9-17.5-4.2-20.6-6.8
				c-2.5-2-6.1-1.7-8.2,0.8c-0.4,0.5-0.7,1-0.9,1.6c-0.4,1-9.9,25.4-39.6,25.4c-19.2,0-30.6-12.6-36.2-21.6
				c8.4-3.3,16-8.3,22.3-14.8c8,7.3,17.4,11.9,33,11.9c12.9,0.2,25.1-6.1,32.3-16.8c3.9,2.4,9.9,4.4,18.9,4.4
				c20.9,0,34.8-25.9,34.8-43.1c0-9.3-1.2-17-3.8-23.5c6.8,1.1,13.9,0.7,20.5-1.2c12.4-3.8,22.4-12.9,29.8-27.3
				c1.5-2.8,0.5-6.3-2.3-7.9s-6.3-0.5-7.9,2.3c-0.1,0.1-0.1,0.2-0.2,0.3c-5.9,11.4-13.5,18.6-22.8,21.5c-14.3,4.4-28.2-3.1-28.3-3.1
				c-2.8-1.6-6.3-0.5-7.9,2.3c-1.3,2.3-0.8,5.1,1,7c7,6.8,10,15.7,10,29.8c0,12.4-10.4,31.5-23.2,31.5c-11.2,0-14.6-3.9-15.2-4.6
				c-0.8-2.2-2.9-3.6-5.2-3.5h-0.1c-2.4,0.1-4.6,1.7-5.3,4c-0.1,0.2-6.4,16.5-25.4,16.5c-12.2,0-19.2-3.3-25.5-9.2
				c3.3-4.5,6-9.3,8.1-14.4c1.2-3-0.3-6.3-3.3-7.5s-6.3,0.3-7.5,3.3c-0.1,0.3-14,34.7-49,34.7c-52.7,0-65.8-43.1-66.3-44.9
				c-0.9-3.1-4.1-4.9-7.2-4c-3.1,0.9-4.9,4.1-4,7.2c4.9,14.5,13.8,27.2,25.8,36.6c-3.7,3.4-7.7,5.1-12,5.1
				c-14.5,0-24.6-15.8-24.8-19.7c0-3.2-2.6-5.8-5.8-5.8c-1.7,0-3.3,0.8-4.4,2.1c-0.1,0.1-9.8,10.7-39.6,10.7c-11.6,0-23-6-31.3-16.5
				c-8.1-10.3-11.9-23.3-10.5-34.9c5.6-0.6,11.1-2.1,16.3-4.3c2.9-1.3,4.2-4.7,2.9-7.6s-4.7-4.2-7.6-2.9c-1.3,0.6-31.1,13.3-51.1-12
				c-20.3-25.7-8-50.5-7.5-51.5c1.5-2.8,0.4-6.3-2.4-7.8c-0.7-0.4-1.6-0.6-2.4-0.7c-8.5-0.4-33.1-17.4-33.1-65.7
				c0-46.2,27.2-64,28.4-64.7c2.7-1.7,3.5-5.2,1.9-7.9c-1-4.5,2.2-28.6,18.4-50.2c14.7-19.8,34.7-29.8,59.3-29.8
				c54.4,0,70.5,48.6,71.2,50.6c1.1,3,4.4,4.5,7.4,3.4c2.8-1,4.4-4,3.6-6.9c-3.8-10.8-9.7-20.7-17.2-29.4
				c-12.2-14.4-28.9-24.2-47.4-27.7c7.1-21.8,35.2-41,61.8-41c20.2,0,31.8,10.3,37.3,16.9c-9.9,4.5-17.9,12.2-22.8,21.8
				c-1.4,2.9-0.2,6.3,2.7,7.7s6.3,0.2,7.7-2.7l0,0c0.5-1.1,13.8-27.5,46.2-16.5c7.6,2.6,12.8-6,16-11.2c0.3-0.6,0.6-1,0.9-1.4
				c3.7-5.7,7.7-11.2,12.2-16.4c13.3-15,34.4-24.7,51.5-12.5c5.8,4.1,10,10.2,14.5,16.6c3.8,5.4,7.7,11,12.7,15.7
				c14.8,13.9,29.6,5.1,34,0.6c2.2-2.3,2.2-6-0.1-8.2s-6-2.2-8.2,0.1c-0.8,0.8-8.3,7.9-17.8-1c-3.1-3-5.9-6.3-8.3-9.9
				c7.2-5.5,18.3-11,34-11c27.8,0,46.7,12.9,56.1,38.5c0.9,2.6,1.8,5.2,2.8,7.8c5,14.3,9.6,27.7,19,31.8c1.8,0.8,3.8,1.2,5.8,1.2
				c2.3,0,4.6-0.5,6.7-1.5c2.9-1.3,4.3-4.7,3-7.6c-1.3-2.9-4.7-4.3-7.6-3l0,0c-1.9,0.8-2.8,0.4-3.2,0.3c-2.6-1.1-5.1-5.5-7.4-10.9
				c5.4-2.6,12.5-5,24-5c16.1,0,28.4,17.4,31.4,26.6c3.5,10.8,1,17,0.9,17.1l5.2,2.5l5.2,2.6c-0.1,0.1-0.1,0.3-0.2,0.4
				c0,0,2-2.6,9.3-2.6c5,0,24.6,9.8,24.6,31.5c-0.3,10.5-5.1,20.4-13.2,27c-2.5,2-2.9,5.6-0.9,8.1c0.8,1,2,1.8,3.3,2
				c0.2,0,21.9,5,21.9,22.5c0,8-2.2,14.1-6.4,17.5c-3.9,3-9,4.1-13.8,2.9c-3.8-0.8-6.1-3.4-8.8-6.4c-3.6-4.1-8.6-9.8-17.8-8.1
				c-6.3,1.2-9.4,4.4-11,7c-3.5,5.6-1.9,12-1.7,12.7c0.9,3.1,4,4.9,7.1,4.1c3.1-0.9,4.8-4,4-7.1c-0.3-1.2-0.2-2.5,0.4-3.6
				c0.5-0.8,1.6-1.4,3.3-1.7c2.3-0.4,3.3,0.2,7,4.4c3.2,3.6,7.5,8.5,15.1,10.1c2,0.4,4.1,0.6,6.2,0.6c4.1,0,8.2-0.9,11.9-2.6
				c5.5,5.3,10.8,13.3,10.8,24.5c0,10.5-4.8,16.8-9.9,20.6c-3.4-3.7-7.7-6.4-12.6-7.6c-5.3-1.3-9-3.7-11.2-7.4
				c-3.9-6.5-1.8-15.1-1.8-15.4c0.8-3.1-1-6.3-4.1-7.1c-3.1-0.8-6.3,1-7.1,4.1c-0.1,0.5-3.5,13.3,3,24.2c3.8,6.4,10,10.7,18.4,12.8
				c9.2,2.3,12.6,13.9,13.7,18.8C881.5,539.4,877.1,557.6,868,564.7z"/>
		</g>
		<g class="st5">
			<g>
				<path class="st4" d="M330.6,518.8c3.2,0.2,5.7,2.9,5.5,6.1c0,0.8-0.3,1.7-0.7,2.4c-0.5,1-12.9,25.8,7.5,51.5
					c19.9,25.2,49.8,12.5,51.1,12c2.9-1.3,6.3,0,7.6,3s0,6.3-3,7.6c-5.2,2.2-10.6,3.6-16.2,4.2c-1.4,11.6,2.4,24.7,10.5,34.9
					c8.3,10.5,19.7,16.6,31.3,16.6c29.7,0,39.5-10.6,39.6-10.7c2-2.5,5.7-2.8,8.2-0.8c1.3,1.1,2.1,2.7,2.1,4.5
					c0.2,3.9,10.3,19.7,24.8,19.7c4.3,0,8.3-1.7,12-5.1c-12-9.4-20.9-22.1-25.8-36.6c-0.8-3.1,1.1-6.3,4.2-7c3-0.8,6,0.9,7,3.9
					c0.5,1.8,13.6,44.9,66.3,44.9c23.3,0,37.3-15.3,44-25.5c-168.9-78.4-179.2-249.5-171.9-338.4c-9.3-3.7-19.2-5.6-29.2-5.5
					c-24.6,0-44.6,10-59.3,29.8c-16.1,21.6-19.3,45.7-18.3,50.2c0.7,1.2,1,2.5,0.8,3.9c-0.3,1.7-1.2,3.1-2.7,4
					c-1.1,0.7-28.4,18.5-28.4,64.7C297.5,501.4,322.1,518.4,330.6,518.8z"/>
			</g>
			<g>
				<path class="st4" d="M664.8,665.6c-5.7,4.8-13.8,8.9-25.2,8.9c-15.6,0-25-4.6-33-11.9c-6.3,6.5-13.9,11.5-22.3,14.8
					c5.7,9,17,21.6,36.2,21.6c29.7,0,39.3-24.4,39.6-25.4c1.1-3,4.5-4.5,7.5-3.4c0.6,0.2,1.2,0.5,1.6,0.9c3.1,2.5,12.9,8.7,20.6,6.8
					c2.7-0.7,5-2.3,6.7-4.5C685.5,671,674.9,668.5,664.8,665.6z"/>
			</g>
			<g>
				<path class="st4" d="M649.8,661.1c-11.5-3.7-22.4-7.7-32.7-12.1c-0.9,1.5-2,3.1-3.1,4.7c6.3,5.9,13.3,9.2,25.6,9.2
					C643.1,663,646.6,662.4,649.8,661.1z"/>
			</g>
			<g>
				<path class="st4" d="M423.1,290.5c4.3,0.8,8.5,2,12.6,3.5c1.1-10.5,2.4-19.5,3.6-26.5C431.6,274.1,425.8,282.1,423.1,290.5z"/>
			</g>
		</g>
		<g>
			<path class="st3" d="M375.5,605.9c-13.7,0-29.5-4.7-41.6-20c-18.4-23.3-14.8-46.2-11.3-57.3c-16.9-6.5-36.6-31.3-36.6-75.6
				c0-43.2,21.6-65,30.3-72c-1-9.4,3.1-25.4,9-38.2c9.3-20.2,32-54.1,80.2-54.1c33,0,53.6,16,65.1,29.4c7.5,8.6,13.3,18.6,17.2,29.4
				c1,3.1-0.7,6.3-3.8,7.3c-3.1,1-6.3-0.7-7.3-3.8c-0.7-2.1-16.8-50.6-71.2-50.6c-24.6,0-44.6,10-59.3,29.8
				c-16.1,21.6-19.3,45.7-18.3,50.2c1.7,2.7,0.8,6.3-1.9,8c-1.1,0.7-28.4,18.5-28.4,64.7c0,48.3,24.6,65.3,33.1,65.7
				c3.2,0.2,5.7,2.9,5.5,6.1c0,0.8-0.3,1.7-0.7,2.4c-0.5,1-12.9,25.8,7.5,51.5c19.9,25.2,49.8,12.5,51.1,12c3-1.2,6.3,0.2,7.6,3.1
				c1.2,2.9-0.1,6.1-2.9,7.5C391.4,604.3,383.5,605.9,375.5,605.9z"/>
		</g>
		<g>
			<path class="st3" d="M416.1,300.9c-0.3,0-0.6,0-0.9-0.1c-3.2-0.5-5.3-3.4-4.9-6.6c0,0,0,0,0,0c4.5-29.6,40-56.5,74.6-56.5
				c36.4,0,50.7,27.5,51.3,28.7c1.4,2.9,0.3,6.3-2.5,7.8c-2.9,1.4-6.3,0.3-7.8-2.5c-0.5-1-11.9-22.3-41-22.3
				c-28.8,0-59.5,22.7-63.1,46.7C421.3,298.8,418.9,300.9,416.1,300.9z"/>
		</g>
		<g>
			<path class="st3" d="M781,317.4c-2,0-4-0.4-5.8-1.2c-9.3-4.1-14-17.6-19-31.8c-0.9-2.6-1.8-5.2-2.8-7.8
				c-9.4-25.5-28.2-38.5-56.1-38.5c-18.3,0-30.4,7.5-37.3,13.8c-2.4,2.2-6,2-8.2-0.4c-2.2-2.4-2-6,0.4-8.2
				c8.4-7.7,23.1-16.9,45.1-16.9c32.8,0,55.9,15.9,67,46.1c1,2.6,1.9,5.3,2.8,8c3.5,10.2,8,23,12.7,25c0.4,0.2,1.3,0.6,3.2-0.3
				c2.9-1.3,6.3,0,7.7,2.9s0,6.3-2.9,7.7c-0.1,0-0.2,0.1-0.2,0.1C785.5,316.9,783.3,317.4,781,317.4z"/>
		</g>
		<g>
			<path class="st3" d="M498.9,681.3c-16,0-28.1-11.9-33.4-21.9c-7.1,4.2-19.9,9.1-41.2,9.1c-15.1,0-29.8-7.6-40.4-21
				c-11.4-14.4-15.8-32.7-12-48.9c0.7-3.1,3.9-5,7-4.3c3.1,0.7,5,3.9,4.3,7l0,0c-3,12.6,0.8,27.5,9.8,39
				c8.3,10.5,19.7,16.6,31.3,16.6c29.5,0,39.5-10.7,39.6-10.8c1.6-1.9,4.1-2.5,6.4-1.7c2.3,0.9,3.8,3,3.8,5.5
				c0.2,3.9,10.3,19.7,24.8,19.7c5.8,0,11-3.1,15.6-9.2c1.9-2.6,5.6-3.1,8.1-1.1s3.1,5.6,1.1,8.1
				C516.9,676.5,508.3,681.3,498.9,681.3z"/>
		</g>
		<g>
			<path class="st3" d="M562.5,681.3c-61.6,0-77.3-52.8-77.5-53.3c-0.8-3.1,1.1-6.3,4.2-7c3-0.8,6,0.9,7,3.9
				c0.5,1.9,13.7,44.9,66.3,44.9c34.8,0,48.4-33.3,49-34.7c1.3-2.9,4.7-4.3,7.6-3c2.8,1.2,4.1,4.4,3.1,7.2
				C621.6,641,605.3,681.3,562.5,681.3z"/>
		</g>
		<g>
			<path class="st3" d="M639.7,674.5c-18.5,0-28.3-6.5-37.4-16.3c-2.2-2.3-2-6,0.3-8.2s6-2,8.2,0.3c7.4,8,14.5,12.6,28.9,12.6
				c18.8,0,25.2-15.9,25.4-16.6c0.8-2.3,3-3.9,5.4-4c2.3-0.1,4.4,1.4,5.2,3.5c0.5,0.7,4,4.6,15.2,4.6c12.8,0,23.2-19.1,23.2-31.5
				c0-14.1-3-23-10-29.8c-2.3-2.2-2.4-5.9-0.2-8.2c1.8-1.9,4.7-2.3,7-1c0.1,0.1,14,7.5,28.3,3.2c9.2-2.8,16.9-10,22.8-21.5
				c1.5-2.8,5-3.9,7.8-2.4c2.8,1.5,3.9,4.9,2.5,7.7c-7.4,14.3-17.4,23.5-29.8,27.3c-6.7,1.9-13.7,2.4-20.5,1.2
				c2.6,6.5,3.8,14.2,3.8,23.5c0,17.2-13.9,43.1-34.8,43.1c-9,0-15-2-18.9-4.4C664.8,668.4,652.6,674.7,639.7,674.5z"/>
		</g>
		<g>
			<path class="st3" d="M621,710.5c-20.7,0-39.7-12.6-49.9-33.2c-1.4-2.9-0.2-6.3,2.6-7.8s6.3-0.2,7.8,2.6
				c8.5,17.2,23.7,27.1,40.5,26.7c13.7-0.2,26.4-7,34.3-18.2c1.6-2.3,3-4.7,4-7.3c1.2-3,4.5-4.4,7.5-3.3c0.5,0.2,1,0.5,1.5,0.9
				c3.9,3.1,8.4,5.4,13.2,6.7c10.7,2.5,15.9-5.9,18.1-11.2c1.2-3,4.6-4.4,7.6-3.1c1.2,0.5,2.1,1.3,2.8,2.4
				c3.5,5.8,11.2,10.5,20.8,12.6c0.2,0,0.4,0.1,0.6,0.2c8.9,3.2,18.7,1.8,26.4-3.7c10.9-7.5,18.5-21.9,19.1-35.9
				c0.2-3.2,2.9-5.6,6.1-5.5c3.1,0.2,5.5,2.8,5.5,5.9c-0.7,17.8-10.1,35.4-24.1,45c-10.6,7.5-24.1,9.4-36.4,5.2
				c-8.8-2-16.4-5.8-22-10.8c-6.5,8.8-16.3,12.6-27,10.1c-4.2-1-8.3-2.7-12-4.9c-0.6,1.1-1.3,2.2-2.1,3.3
				c-9.9,14.3-26.1,22.9-43.5,23.2L621,710.5z"/>
		</g>
		<g>
			<path class="st3" d="M867.7,459.9c-2.1,0-4.2-0.2-6.2-0.6c-7.6-1.5-12-6.5-15.1-10.1c-3.7-4.2-4.7-4.8-7-4.4
				c-1.7,0.3-2.8,0.9-3.3,1.7c-0.5,1.1-0.6,2.3-0.4,3.5c0.8,3.1-1.1,6.2-4.2,7c-3,0.8-6.1-1-7-4c-0.2-0.7-1.8-7.1,1.7-12.7
				c1.6-2.5,4.8-5.8,11-7c9.2-1.7,14.1,4,17.8,8.1c2.7,3,5,5.6,8.8,6.4c5.2,1.1,10.2,0,13.8-2.9c4.2-3.4,6.4-9.5,6.4-17.5
				c0-17.4-21-22.3-21.9-22.5c-3.1-0.7-5.1-3.8-4.4-6.9c0.3-1.3,1-2.4,2-3.2c8.1-6.6,12.9-16.5,13.2-27c0-21.7-19.6-31.5-24.6-31.5
				c-7.3,0-9.3,2.5-9.3,2.6c0.1-0.1,0.2-0.2,0.2-0.4l-5.1-2.5l-5.2-2.5c0.1-0.2,2.6-6.4-0.9-17.1c-3-9.3-15.3-26.6-31.4-26.6
				c-14.1,0-21.6,3.5-27.5,6.8c-2.8,1.6-6.3,0.7-7.9-2c-1.6-2.8-0.7-6.3,2-7.9c0.1,0,0.2-0.1,0.2-0.1c7.7-4.3,17.1-8.3,33.1-8.3
				c21.3,0,37.9,20.7,42.4,34.6c1.4,4.1,2.2,8.3,2.4,12.6c2.3-0.5,4.7-0.7,7.1-0.7c12.3,0,36.2,15.2,36.2,43.1
				c-0.2,10.6-3.9,20.8-10.6,29.1c10.3,4.8,21.7,14.5,21.7,30.6c0,14.7-5.8,22.5-10.7,26.5C880,457.9,873.9,460,867.7,459.9z"/>
		</g>
		<g>
			<path class="st3" d="M795.7,665c-8.1,0.2-15.6-4.5-19.1-11.8c-1.2-3,0.2-6.3,3.2-7.6s6.3,0.2,7.6,3.2c0.4,0.9,3.1,5.8,11,4.4
				c9.8-1.7,8.2-14.7,8.1-15.2c-0.4-3.2,1.8-6.1,5-6.5c0.2,0,0.4,0,0.6,0c1.8-0.1,18.7-1.9,18.7-31.1c0-31.2-26.2-38.2-26.4-38.3
				c-3.1-0.8-5-3.9-4.2-7s3.9-5,7-4.2c12.2,3.1,35.1,17.5,35.1,49.5c0,29.8-15.5,38.8-24.2,41.5c-0.4,8.8-4.3,20.5-17.8,22.8
				C798.7,664.9,797.2,665,795.7,665z"/>
		</g>
		<g>
			<path class="st3" d="M842.3,587.2c-3.8,0.1-7.6-0.4-11.3-1.3c-3.1-0.9-4.8-4.1-3.9-7.2s4.1-4.8,7.2-3.9
				c0.7,0.2,17.5,4.7,34.4-8.5c9.1-7.1,13.6-25.3,10.1-41.5c-1-4.9-4.5-16.5-13.7-18.8c-8.4-2.1-14.6-6.4-18.4-12.8
				c-6.4-10.8-3.1-23.6-3-24.2c0.8-3.1,4-4.9,7.1-4.1c3.1,0.8,4.9,4,4.1,7.1l0,0c0,0.2-2.2,8.8,1.8,15.4c2.2,3.6,5.8,6.1,11.2,7.4
				c11,2.7,19.1,12.8,22.2,27.6c3.8,17.8,0.1,41.8-14.3,53C866.2,583,854.4,587.2,842.3,587.2z"/>
		</g>
		<g>
			<path class="st3" d="M879.2,515.8c-3.2,0.1-5.8-2.5-5.9-5.7c0-2.3,1.2-4.3,3.3-5.3c6.3-3.2,13.9-9.9,13.9-23.1s-7.5-22-13.7-27.1
				c-2.4-2.1-2.6-5.8-0.5-8.2c2-2.3,5.4-2.6,7.8-0.8c11.6,9.4,18,22.2,18,36.1c0,20.1-12.7,29.6-20.3,33.4
				C880.9,515.6,880,515.8,879.2,515.8z"/>
		</g>
		<g>
			<path class="st3" d="M387.3,385.9c-4.5-0.1-8.9-1.7-12.4-4.6c-2.4-2.1-2.7-5.7-0.7-8.2c2.1-2.4,5.7-2.7,8.2-0.7
				c0.1,0.1,2.8,2.2,5.7,1.8c2-0.3,4-1.9,6-4.8c6.4-9.6-1.5-17.8-1.9-18.1c-2.3-2.2-2.4-5.9-0.2-8.2c2.2-2.3,5.9-2.4,8.2-0.2
				c0.1,0.1,0.2,0.2,0.2,0.2c5.2,5.3,12.6,18.9,3.3,32.8c-3.9,5.8-8.6,9-14.1,9.8C388.8,385.8,388.1,385.9,387.3,385.9z"/>
		</g>
		<g>
			<path class="st3" d="M369.9,492c-3.2,0-5.8-2.6-5.8-5.8c0-1.8,0.8-3.4,2.2-4.5c1.4-1.2,8.3-7.3,2.9-14.6c-2.6-3.5-5.8-4.5-11.1-6
				c-7.2-2-16.3-4.4-22.6-17.4c-9-18.5,4.3-33.5,12.6-38.8c2.7-1.7,6.3-0.9,8,1.8s0.9,6.3-1.8,8c-1.5,1-15.1,10.3-8.5,24
				c4,8.2,8.9,9.6,15.2,11.3c5.5,1.5,12.2,3.3,17.4,10.3c9.8,13.3,1,25.8-5,30.5C372.5,491.5,371.2,492,369.9,492z"/>
		</g>
		<g>
			<path class="st3" d="M483.9,606.6c-0.2,0-0.4,0-0.6,0c-3.2-0.3-5.5-3.2-5.1-6.4c0.7-6.4-5.5-14.9-13.2-18.2
				c-4.4-1.9-10.9-2.7-16.6,4.1c-2,2.5-5.7,2.8-8.2,0.7c-2.5-2-2.8-5.7-0.7-8.2c7.7-9.3,19-12.1,30-7.4
				c12.6,5.3,21.4,18.5,20.2,30.1C489.4,604.4,486.9,606.6,483.9,606.6z"/>
		</g>
		<g>
			<path class="st3" d="M352.3,560.4c-2.8,0-5.2-2-5.7-4.7c-1.9-10.3,2.9-20.9,11.1-24.5c7.2-3.2,15.1-0.4,21,7.5
				c2.9,3.9,5.9,5.8,8.9,5.8l0,0c5.5,0,11.1-6,12.7-8.1c1.9-2.6,5.5-3.1,8.1-1.2c2.6,1.9,3.1,5.5,1.2,8.1c-1,1.3-9.8,12.8-22,12.8
				h-0.1c-4.7,0-11.7-1.8-18.2-10.4c-1.5-2-4.3-5-7.1-3.9c-2.9,1.3-5.4,6.4-4.4,11.8c0.6,3.1-1.5,6.2-4.6,6.7c0,0,0,0,0,0
				C353,560.4,352.7,560.4,352.3,560.4z"/>
		</g>
		<g>
			<path class="st3" d="M405.4,573.5c-0.6,0-1.2-0.1-1.8-0.3c-0.9-0.3-8.9-3.1-11.8-11.1c-2.1-5.9-0.9-12.6,3.6-19.8
				c1.7-2.7,5.3-3.5,8-1.8c2.7,1.7,3.5,5.3,1.8,8c-1.8,2.8-3.6,6.8-2.6,9.7s4.5,4.1,4.5,4.1c3,1,4.7,4.2,3.7,7.3
				C410.1,571.9,407.9,573.5,405.4,573.5L405.4,573.5z"/>
		</g>
		<g>
			<path class="st3" d="M504.6,296.3c-3.2,0-5.8-2.6-5.8-5.8c0-0.8,0.2-1.7,0.6-2.4c6-12.6,25.9-33.3,58.8-23c1.5-1.8,2.8-3.7,4-5.7
				c0.4-0.7,0.8-1.4,1.1-1.8c4-6.1,8.4-12,13.2-17.6c16.8-18.9,44-30.6,66.9-14.2c7.4,5.3,12.4,12.5,17.3,19.4
				c3.6,5.1,7,10,11.1,13.9c8.9,8.4,15.9,2.8,17.8,0.9c2.2-2.3,5.9-2.3,8.2-0.1s2.3,5.9,0.1,8.2c-4.4,4.5-19.1,13.3-34-0.6
				c-5-4.7-8.9-10.3-12.7-15.7c-4.5-6.4-8.7-12.5-14.5-16.6c-17.1-12.2-38.2-2.5-51.5,12.5c-4.4,5.2-8.5,10.6-12.2,16.3
				c-0.2,0.3-0.5,0.8-0.9,1.4c-3.1,5.1-8.3,13.8-16,11.2c-32.4-11-45.7,15.4-46.2,16.5C508.8,295,506.8,296.3,504.6,296.3z"/>
		</g>
		<g>
			<path class="st3" d="M599.8,349c-1.9,0-3.7-1-4.8-2.6c-0.2-0.3-21.8-33.8,9.4-66.5c2.2-2.3,5.9-2.4,8.2-0.2s2.4,5.9,0.2,8.2l0,0
				c-24.7,25.8-8.8,51-8.1,52.1c1.8,2.7,1.1,6.3-1.6,8C602.1,348.7,601,349,599.8,349L599.8,349z"/>
		</g>
		<g>
			<path class="st3" d="M608.7,409.1c-3.2,0-5.8-2.6-5.8-5.7c0-1.2,0.3-2.3,1-3.3c0.7-1.1,16.6-26.3-8.1-52.1c-2.2-2.3-2-6,0.3-8.2
				c2.3-2.1,5.8-2,8,0.2c31.2,32.7,9.6,66.2,9.4,66.5C612.5,408.2,610.7,409.1,608.7,409.1z"/>
		</g>
		<g>
			<path class="st3" d="M281.6,557.1c-23.1,0-46-13-66-37.6c-29.4-36.1-50.1-78.3-67.3-136.7c-3.1-9.9,2.4-20.3,12.2-23.4
				s20.3,2.4,23.4,12.2c0.1,0.2,0.1,0.5,0.2,0.7c15.9,54.1,33.9,91.1,60.4,123.6c12.5,15.4,25.7,23.8,37,23.8l0,0
				c8.8,0,17.5-5.3,26-15.7c6.3-8.2,18-9.8,26.2-3.5s9.8,18,3.5,26.2c-0.2,0.3-0.5,0.6-0.7,0.9C316.8,551.9,295.7,557,281.6,557.1z"
				/>
		</g>
		<g>
			<path class="st3" d="M919.6,557.1L919.6,557.1c-14.1,0-35.2-5.1-55-29.5c-6.8-7.8-5.9-19.6,1.9-26.4s19.6-5.9,26.4,1.9
				c0.2,0.3,0.5,0.6,0.7,0.9c8.5,10.4,17.2,15.7,26,15.7l0,0c11.3,0,24.5-8.5,37-23.8c26.5-32.5,44.5-69.4,60.4-123.6
				c2.7-10,13-15.8,23-13.1s15.8,13,13.1,23c-0.1,0.2-0.1,0.5-0.2,0.7c-17.1,58.4-37.9,100.6-67.3,136.7
				C965.6,544,942.8,557.1,919.6,557.1z"/>
		</g>
		<g>
			<path class="st3" d="M503.9,615.3c-4.6-4.1-10.8-1.5-14.1-0.2c-10.4,4.4-20.2,9.9-29.3,16.6c-5,3.6-9.8,7.5-14.3,11.6
				c-16.2,14.5-38.3,38.3-51.8,69.5c-6.9,15.8-9.8,29.6-8.9,42v0.1c0.2,3.4,0.5,7.7,3.2,10.8c1.4,1.8,3.6,2.8,5.9,2.7
				c2.3-0.2,4.5-1.2,6.1-2.8c0,0.1,0.1,0.1,0.1,0.2c10.4,14.3,27.1,18.2,43.3,21.8c2.8,0.6,5.4,1.2,8,1.9l0.2,0.2
				c1.9,1.7,4.5,2.3,7,1.7c3.5-0.7,6.4-3.1,7.7-6.4l0,0c0.6-1.3,1.1-2.5,1.5-3.8l0.3-0.9c1.7-4.8,3.8-9.3,6.3-13.7
				c2.9-5.1,6.5-9.8,10.8-13.8c2.2-2,4.5-3.7,7.1-5.2c3.4-1.9,7.6-4.2,7.1-10.1c-0.4-4.6-2.7-6.6-4.6-7.5c-1.4-0.6-2.9-0.9-4.4-0.8
				c-1.7-5.4-6.9-25.1,2.4-34.7c11.2-4.4,20.2-13,25.2-23.9c7.2-17.3-1.7-35.2-11.6-45.3l0,0C507.8,621.7,506.6,617.9,503.9,615.3z
				 M453.5,778.8c0.9-7.8,3.6-15.2,7.8-21.7c5.1-7.7,11.7-14.4,19.4-19.5c3.3-2.3,9.7-4.9,12.8-3.5c0.4,0.2,1.7,0.8,2,3.7
				c0.2,2.6-1.2,3.7-4.8,5.7c-2.9,1.6-5.5,3.5-7.9,5.8c-4.6,4.3-8.6,9.4-11.7,14.9c-2.7,4.6-4.9,9.5-6.6,14.5l-0.3,0.9
				c-0.4,1.2-0.8,2.4-1.3,3.4c-0.5,1.1-1.2,2.2-2.2,2.9c-0.7,0.5-1.5,0.8-2.3,1c-1.1,0.3-2.2,0.1-3.1-0.6
				C454,785,453.2,781.9,453.5,778.8z M404.4,763c-1.5-2.1-2.2-5.3-2.1-9.8c1.9-17.8,8-35.5,18.1-52.7
				c20.8-31.8,50.8-56.9,84.4-70.8c8.5,9.2,15.7,24.5,9.6,39.1c-6,13.5-19.4,22.8-35.8,24.9c-1.3,0.2-2.1,1.3-2,2.5
				c0.2,1.3,1.3,2.1,2.5,2c2.4-0.3,4.8-0.7,7.2-1.4c-5.5,11.4-1.6,27.3,0.2,33c-3,0.9-5.8,2.2-8.4,3.9c-0.6,0.4-1.2,0.9-1.9,1.3
				c-7.4,5.3-13.8,11.9-18.8,19.5c-4.6,7.1-7.5,15.3-8.5,23.7c-0.2,1.9-0.1,3.8,0.3,5.7l-4.3-1C429.6,779.5,413.8,775.9,404.4,763z
				 M502.1,625.7c0,0.1-0.1,0.1-0.1,0.2c-12.8,5.4-25,12.3-36.3,20.4c-19.4,14.1-36.1,31.6-49.2,51.7l-0.1,0.1
				c-10.5,17.8-16.8,36.2-18.8,54.7c0,0.1,0,0.1,0,0.2c-0.1,2.7,0.2,5.4,0.8,8c-1,1.5-2.6,2.5-4.4,2.8c-0.8,0.1-1.6-0.3-2.1-1
				c-1.7-2-1.9-5.2-2.1-8.2v-0.1c-0.8-11.7,2-24.8,8.6-39.9c13.2-30.4,34.9-53.7,50.7-67.9c13.4-12,27.6-21.2,42.3-27.3
				c3.5-1.5,7.1-2.7,9.3-0.7C502.8,620.5,503.3,623.3,502.1,625.7L502.1,625.7z"/>
		</g>
		<g>
			<path class="st3" d="M457.3,793c-2.2,0-4.4-0.8-6-2.3c-2.5-0.6-5-1.2-7.6-1.8c-16-3.6-32.6-7.4-43.3-21.3c-1.7,1.3-3.7,2-5.8,2.2
				c-2.8,0.2-5.4-1-7.1-3.2c-3-3.5-3.3-8.1-3.5-11.7c-0.9-12.8,2.1-26.8,9.1-42.8c13.6-31.4,35.9-55.4,52.2-70
				c4.6-4.1,9.4-8,14.5-11.7c9.2-6.7,19.1-12.3,29.6-16.7c3.4-1.4,10.4-4.3,15.7,0.4l0,0c2.9,2.7,4.3,6.7,3.7,10.7
				c10,10.5,18.8,28.7,11.4,46.3c-5.1,11.2-14.3,20-25.7,24.6c-8,8.6-3.7,26.4-2.1,32c1.4,0.1,2.7,0.4,3.9,1c2.2,1,5,3.4,5.4,8.7
				c0.6,6.8-4.5,9.6-7.8,11.5c-2.5,1.4-4.7,3-6.8,5c-4.2,3.9-7.7,8.4-10.5,13.4c-2.5,4.3-4.5,8.8-6.2,13.5l-0.3,0.9
				c-0.4,1.4-1,2.7-1.5,4c-1.5,3.7-4.8,6.4-8.8,7.2C458.8,793,458.1,793,457.3,793z M400.9,763.3l1,1.5c10,13.9,26.5,17.6,42.4,21.2
				c2.8,0.6,5.5,1.3,8.1,1.9l0.4,0.1l0.4,0.4c1.6,1.4,3.8,2,5.8,1.4c3-0.6,5.6-2.7,6.7-5.6c0.5-1.2,1-2.5,1.4-3.7l0.3-0.9
				c1.7-4.9,3.8-9.5,6.4-14c3-5.3,6.7-10,11.1-14.2c2.2-2.1,4.7-3.8,7.4-5.3c3.3-1.8,6.8-3.8,6.3-8.7c-0.3-3.1-1.5-5.2-3.7-6.3
				c-1.2-0.5-2.5-0.8-3.8-0.7H490l-0.3-1.1c-1.8-5.9-7.1-26,2.7-36.1l0.2-0.2l0.3-0.1c10.8-4.3,19.5-12.5,24.4-23.1
				c6.9-16.6-1.8-33.9-11.3-43.6l-0.5-0.6l0.2-0.8c0.7-3.2-0.3-6.5-2.7-8.7c-3.9-3.5-9.3-1.2-12.6,0.1c-10.3,4.3-20,9.8-29,16.4
				c-4.9,3.6-9.7,7.4-14.2,11.5c-16.1,14.4-38,38.1-51.5,69c-6.8,15.6-9.7,29.1-8.8,41.3c0.2,3.3,0.5,7.3,2.8,10.1
				c1.1,1.4,2.9,2.2,4.7,2.1c2-0.2,3.8-1.1,5.2-2.5L400.9,763.3z M457.3,788.4c-1.1,0-2.2-0.4-3-1.1c-1.7-1.6-2.6-5-2.3-8.6l0,0
				c0.9-8,3.7-15.6,8-22.4c5.2-7.9,11.9-14.7,19.8-19.9c3.5-2.4,10.4-5.4,14.3-3.6c1.6,0.8,2.6,2.4,2.8,4.9c0.3,3.6-1.9,5.1-5.5,7.1
				c-2.8,1.6-5.3,3.4-7.7,5.5c-4.5,4.2-8.4,9.1-11.4,14.5c-2.6,4.5-4.8,9.3-6.5,14.2l-0.3,0.9c-0.4,1.2-0.8,2.4-1.4,3.5
				c-0.6,1.4-1.5,2.6-2.7,3.5c-0.9,0.6-1.8,1-2.9,1.2C458.2,788.4,457.8,788.4,457.3,788.4L457.3,788.4z M455,779
				c-0.3,2.9,0.5,5.4,1.3,6.2c0.2,0.2,0.6,0.5,1.8,0.3c0.6-0.1,1.2-0.3,1.7-0.7c0.8-0.6,1.4-1.4,1.7-2.4c0.5-1.1,0.9-2.1,1.2-3.2
				l0.3-0.9c1.8-5.1,4.1-10,6.8-14.7c3.2-5.7,7.2-10.8,12-15.2c2.5-2.3,5.3-4.3,8.2-6c3.8-2.1,4.1-2.7,4-4.3
				c-0.2-2.1-0.9-2.4-1.1-2.5c-2.2-1-7.8,0.9-11.4,3.3c-7.6,5-14,11.5-19,19.1C458.5,764.2,455.9,771.5,455,779z M451.2,786
				l-2.3-0.5l-4.3-1c-15.6-3.5-31.8-7.2-41.4-20.6c-1.7-2.3-2.5-5.8-2.4-10.7c1.9-18.2,8.1-36.1,18.3-53.5
				c21-32.1,51.2-57.4,85.1-71.4l1-0.4l0.7,0.8c8.9,9.8,16.2,25.6,9.9,40.7c-6.3,14-20.1,23.7-37,25.8c-0.4,0.1-0.8,0.5-0.7,0.9
				c0,0.2,0.1,0.4,0.3,0.5c0.2,0.1,0.4,0.2,0.6,0.2c2.4-0.3,4.7-0.7,7-1.3l3.1-0.8l-1.4,2.9c-5.2,10.9-1.5,26,0.3,32l0.4,1.4
				l-1.4,0.4c-2.8,0.8-5.6,2-8,3.7c-0.6,0.4-1.2,0.8-1.8,1.3c-7.3,5.2-13.6,11.6-18.5,19.1c-4.5,6.9-7.4,14.8-8.3,23.1
				c-0.2,1.7-0.1,3.5,0.3,5.2L451.2,786z M504.4,631.4c-33,13.8-62.3,38.6-82.8,69.8c-10,16.9-16,34.5-17.9,52.1
				c-0.1,4.1,0.5,7,1.8,8.8l0,0c9,12.5,24.6,16,39.7,19.5l2.2,0.5c-0.1-1.3-0.1-2.6,0-3.9c1-8.7,4-17,8.8-24.4
				c5.1-7.8,11.6-14.6,19.2-19.9l1.9-1.3c2.3-1.5,4.8-2.8,7.4-3.7c-1.8-6.5-4.5-19.4-0.8-30c-1.5,0.3-3,0.6-4.5,0.8
				c-2.1,0.3-3.9-1.2-4.2-3.3c-0.3-2.1,1.2-3.9,3.3-4.2c15.9-2,28.8-11,34.7-24C518.7,654.8,512.4,640.5,504.4,631.4L504.4,631.4z
				 M394,765.3c-1.2,0-2.4-0.6-3.1-1.5c-2-2.4-2.2-5.8-2.5-9.1c-0.8-12,2-25.3,8.7-40.7c13.3-30.6,35.1-54.1,51.1-68.4
				c13.5-12.1,27.9-21.4,42.8-27.6c2.9-1.2,7.8-3.2,10.9-0.4c2.4,2.3,3,5.8,1.6,8.7l-0.3,0.7l-0.6,0.2c-12.7,5.4-24.8,12.2-36,20.3
				c-19.2,14-35.8,31.4-48.8,51.3c-10.4,17.6-16.7,35.8-18.6,54.2c-0.1,2.6,0.2,5.2,0.8,7.7l0.2,0.7l-0.4,0.6
				c-1.3,1.8-3.2,3.1-5.5,3.4L394,765.3z M497.8,619.1c-2,0.2-3.9,0.7-5.7,1.6c-14.5,6-28.6,15.2-41.9,27.1
				c-15.7,14.1-37.2,37.2-50.3,67.4c-6.5,14.9-9.2,27.7-8.5,39.2c0.2,2.9,0.4,5.8,1.8,7.5c0.4,0.5,0.6,0.5,0.9,0.5
				c1.1-0.2,2.1-0.8,2.8-1.7c-0.5-2.5-0.8-5.1-0.7-7.7c0-0.1,0-0.2,0-0.3c2-18.7,8.3-37.3,19-55.3l0.1-0.1
				c13.2-20.2,30-37.8,49.5-52c11.2-8.1,23.3-15,36-20.4c0.7-1.7,0.3-3.7-1-5C499.3,619.3,498.6,619,497.8,619.1z"/>
		</g>
		<g>
			<path class="st4" d="M404.4,763c-1.5-2.1-2.2-5.3-2.1-9.8c1.9-17.8,8-35.5,18.1-52.7c20.8-31.8,50.8-56.9,84.4-70.8
				c8.5,9.2,15.7,24.5,9.6,39.1c-6,13.5-19.4,22.8-35.8,24.9c-1.3,0.2-2.1,1.3-2,2.5c0.2,1.3,1.3,2.1,2.5,2c2.4-0.3,4.8-0.7,7.2-1.4
				c-5.5,11.4-1.6,27.3,0.2,33c-3,0.9-5.8,2.2-8.4,3.9c-0.6,0.4-1.2,0.9-1.9,1.3c-7.4,5.3-13.8,11.9-18.8,19.5
				c-4.6,7.1-7.5,15.3-8.5,23.7c-0.2,1.9-0.1,3.8,0.3,5.7l-4.3-1C429.6,779.5,413.8,775.9,404.4,763z"/>
		</g>
		<g>
			<path class="st3" d="M451.2,786l-2.3-0.5l-4.3-1c-15.6-3.5-31.8-7.2-41.4-20.6l0,0c-1.7-2.3-2.5-5.8-2.4-10.7
				c1.9-18.2,8.1-36.1,18.3-53.5c21-32.1,51.2-57.4,85.1-71.4l1-0.4l0.7,0.8c8.9,9.8,16.2,25.6,9.9,40.7c-6.3,14-20.1,23.7-37,25.8
				c-0.4,0.1-0.8,0.5-0.7,0.9c0.1,0.4,0.5,0.8,0.9,0.7c2.4-0.3,4.7-0.7,7-1.3l3.1-0.8l-1.4,2.9c-5.2,10.9-1.5,26,0.3,32l0.4,1.4
				l-1.4,0.4c-2.8,0.8-5.5,2-8,3.7c-0.6,0.4-1.2,0.8-1.8,1.3c-7.3,5.2-13.6,11.6-18.5,19.1c-4.5,6.9-7.4,14.8-8.3,23.1
				c-0.2,1.7-0.1,3.5,0.3,5.2L451.2,786z M504.4,631.4c-33,13.8-62.3,38.6-82.8,69.8c-10,16.9-16,34.5-17.9,52.1
				c-0.1,4.1,0.5,7,1.8,8.8l0,0c9,12.5,24.6,16,39.7,19.5l2.2,0.5c-0.1-1.3-0.1-2.6,0-3.9c1-8.7,4-17,8.8-24.4
				c5.1-7.8,11.6-14.6,19.2-19.9l1.9-1.3c2.3-1.5,4.8-2.8,7.4-3.7c-1.8-6.5-4.5-19.4-0.8-30c-1.5,0.3-3,0.6-4.5,0.8
				c-2.1,0.3-3.9-1.2-4.2-3.3c-0.3-2.1,1.2-3.9,3.3-4.2c15.9-2,28.8-11,34.7-24C518.7,654.8,512.4,640.5,504.4,631.4L504.4,631.4z"
				/>
		</g>
		<g>
			<path class="st3" d="M394,765.3c-1.2,0-2.4-0.6-3.1-1.5c-2-2.4-2.2-5.8-2.5-9.1c-0.8-12,2-25.3,8.7-40.7
				c13.3-30.6,35.1-54.1,51.1-68.4c13.5-12.1,27.9-21.4,42.8-27.6c2.9-1.2,7.8-3.2,10.9-0.4c2.4,2.3,3,5.8,1.6,8.7l-0.3,0.7
				l-0.6,0.2c-12.7,5.4-24.8,12.2-36,20.3c-19.2,14-35.8,31.4-48.8,51.3c-10.4,17.6-16.7,35.8-18.6,54.2c-0.1,2.6,0.2,5.2,0.8,7.7
				l0.2,0.7l-0.4,0.6c-1.3,1.8-3.2,3.1-5.5,3.4L394,765.3z M497.8,619.1c-2,0.2-3.9,0.7-5.7,1.6c-14.5,6-28.6,15.2-41.9,27.1
				c-15.7,14.1-37.2,37.2-50.3,67.4c-6.5,14.9-9.2,27.7-8.5,39.2c0.2,2.9,0.4,5.8,1.8,7.5c0.4,0.5,0.6,0.5,0.9,0.5
				c1.1-0.2,2.1-0.8,2.8-1.7c-0.5-2.5-0.8-5.1-0.7-7.7c0-0.1,0-0.2,0-0.3c2-18.7,8.3-37.3,19-55.3l0.1-0.1
				c13.2-20.2,30-37.8,49.5-52c11.2-8.1,23.3-15,36-20.4c0.7-1.7,0.3-3.7-1-5C499.3,619.3,498.6,619,497.8,619.1z"/>
		</g>
		<g>
			<path class="st2" d="M453.5,778.8c0.9-7.8,3.6-15.2,7.8-21.7c5.1-7.7,11.7-14.4,19.4-19.5c3.3-2.3,9.7-4.9,12.8-3.5
				c0.4,0.2,1.7,0.8,2,3.7c0.2,2.6-1.2,3.7-4.8,5.7c-2.9,1.6-5.5,3.5-7.9,5.8c-4.6,4.3-8.6,9.4-11.7,14.9c-2.7,4.6-4.9,9.5-6.6,14.5
				l-0.3,0.9c-0.4,1.2-0.8,2.4-1.3,3.4c-0.5,1.1-1.2,2.2-2.2,2.9c-0.7,0.5-1.5,0.8-2.3,1c-1.1,0.3-2.2,0.1-3.1-0.6
				C454,785,453.2,781.9,453.5,778.8z"/>
		</g>
		<g>
			<path class="st3" d="M457.3,788.4c-1.1,0-2.2-0.4-3-1.1c-1.7-1.6-2.6-5-2.3-8.6l0,0c0.9-8,3.7-15.6,8-22.4
				c5.2-7.9,11.9-14.7,19.8-19.9c3.5-2.4,10.4-5.4,14.3-3.6c1.6,0.8,2.6,2.4,2.8,4.9c0.3,3.6-1.9,5.1-5.5,7.1
				c-2.8,1.6-5.3,3.4-7.7,5.5c-4.5,4.2-8.4,9.1-11.4,14.5c-2.6,4.5-4.8,9.3-6.5,14.2l-0.3,0.9c-0.4,1.2-0.8,2.4-1.4,3.5
				c-0.6,1.4-1.5,2.6-2.7,3.5c-0.9,0.6-1.8,1-2.9,1.2C458.2,788.4,457.8,788.4,457.3,788.4z M455,779c-0.3,2.9,0.5,5.4,1.3,6.2
				c0.2,0.2,0.6,0.5,1.8,0.3c0.6-0.1,1.2-0.3,1.7-0.7c0.8-0.6,1.4-1.4,1.7-2.4c0.5-1.1,0.9-2.1,1.2-3.2l0.3-0.9
				c1.8-5.1,4.1-10,6.8-14.7c3.2-5.7,7.2-10.8,12-15.2c2.5-2.3,5.3-4.3,8.2-6c3.8-2.1,4.1-2.7,4-4.3c-0.2-2.1-0.9-2.4-1.1-2.5
				c-2.2-1-7.8,0.9-11.4,3.3c-7.6,5-14,11.5-19,19.1C458.5,764.2,455.9,771.5,455,779z"/>
		</g>
		<g>
			<path class="st6" d="M502.1,625.7c0,0.1-0.1,0.1-0.1,0.2c-12.8,5.4-25,12.3-36.3,20.4c-19.4,14.1-36.1,31.6-49.2,51.7l-0.1,0.1
				c-10.5,17.8-16.8,36.2-18.8,54.7c0,0.1,0,0.1,0,0.2c-0.1,2.7,0.2,5.4,0.8,8c-1,1.5-2.6,2.5-4.4,2.8c-0.8,0.1-1.6-0.3-2.1-1
				c-1.7-2-1.9-5.2-2.1-8.2v-0.1c-0.8-11.7,2-24.8,8.6-39.9c13.2-30.4,34.9-53.7,50.7-67.9c13.4-12,27.6-21.2,42.3-27.3
				c3.5-1.5,7.1-2.7,9.3-0.7C502.8,620.5,503.3,623.3,502.1,625.7z"/>
		</g>
		<g>
			<path class="st3" d="M735.3,627.1L735.3,627.1c-12.8,5.9-27.5,19.5-26.8,38.3c0.8,12,6.3,23.2,15.1,31.2
				c5.3,12.3-6.6,28.8-10,33.3c-1.4-0.6-2.9-0.9-4.4-0.8c-2.1,0.2-4.9,1.2-6.9,5.4c-2.5,5.3,0.6,9,3.1,11.9c1.9,2.2,3.5,4.7,4.8,7.3
				c2.6,5.3,4.4,10.9,5.3,16.7c0.8,5,1.1,10,1,15v0.9c-0.1,1.4-0.1,2.7,0,4.1l0,0c0.1,3.6,2,6.9,5,8.7c2.1,1.5,4.8,1.8,7.2,0.9
				l0.3-0.1c2.7,0.3,5.4,0.7,8.2,1.1c16.4,2.3,33.4,4.6,48.2-5.2l0.2-0.1c1,2.1,2.7,3.8,4.7,4.8c2.1,0.9,4.5,0.8,6.5-0.4
				c3.6-2,5.4-5.9,6.8-9v-0.1c5.2-11.4,7.3-25.3,6.5-42.5c-1.7-33.9-14-64-24-83.3c-2.8-5.5-5.9-10.8-9.3-15.9
				c-6.2-9.4-13.4-18.1-21.5-25.8c-2.6-2.5-7.5-7.1-13.3-4.8C738.3,620.2,735.8,623.4,735.3,627.1z M726.9,795.9
				c-1,0.4-2.2,0.2-3.1-0.5c-0.7-0.4-1.3-1-1.8-1.7c-0.6-1.1-1-2.3-1-3.5c-0.1-1.2-0.1-2.4,0-3.6v-1c0.1-5.3-0.3-10.6-1.1-15.9
				c-1-6.3-2.9-12.3-5.7-18c-1.5-2.9-3.3-5.7-5.4-8.2c-2.6-3.1-3.6-4.6-2.4-7c1.3-2.6,2.7-2.8,3.2-2.8c3.5-0.3,8.5,4.5,10.8,7.8
				c5.4,7.5,9.2,16.1,11.3,25.1c1.7,7.6,1.6,15.5-0.3,23.1C730.4,792.6,728.7,795.2,726.9,795.9L726.9,795.9z M737.7,796.5l-4.3-0.6
				c1-1.6,1.8-3.3,2.3-5.2c2.1-8.3,2.2-16.9,0.4-25.2c-2-8.9-5.6-17.4-10.7-24.9c-0.4-0.6-0.8-1.2-1.3-1.9c-1.8-2.5-4-4.8-6.5-6.6
				c3.7-4.8,13-18.2,11.8-30.8c2,1.4,4.1,2.7,6.2,3.8c1.1,0.5,2.5,0.1,3-1.1c0.5-1.1,0.1-2.4-0.9-3c-14.6-7.7-23.9-21.2-24.8-35.9
				c-0.6-15.8,11.6-27.6,22.8-33.2c26.6,24.8,45.7,58.8,54,96c3.5,19.6,2.9,38.4-1.6,55.7c-1.5,4.3-3.3,7.1-5.5,8.5
				C769.4,800.9,753.3,798.7,737.7,796.5z M743.4,623c2.8-1.1,5.7,1.3,8.5,3.9c11.6,10.9,21.7,24.5,30,40.5
				c9.8,18.9,21.8,48.3,23.5,81.4c0.8,16.5-1.2,29.7-6.1,40.4v0.1c-1.3,2.8-2.6,5.6-4.9,7c-0.7,0.5-1.6,0.5-2.3,0.2
				c-1.5-0.9-2.7-2.4-3.1-4.2c1.5-2.2,2.8-4.7,3.6-7.2c0-0.1,0.1-0.1,0.1-0.2c4.7-18,5.3-37.5,1.8-57.8c0,0,0-0.1,0-0.1
				c-5.2-23.4-14.6-45.7-27.8-65.7c-7.7-11.6-16.6-22.3-26.8-31.9c0-0.1,0-0.1,0-0.2C739.6,626.6,741,624.1,743.4,623z"/>
		</g>
		<g>
			<path class="st3" d="M758.8,804.5c-7.3,0-14.6-1-21.9-2c-2.7-0.4-5.2-0.7-7.8-1c-2.8,1.1-6,0.7-8.5-1c-3.4-2.1-5.5-5.8-5.7-9.9
				c-0.1-1.4-0.1-2.8,0-4.3v-0.9c0.1-4.9-0.2-9.9-1-14.8c-0.9-5.7-2.6-11.2-5.1-16.3c-1.3-2.5-2.8-4.9-4.6-7
				c-2.5-2.9-6.2-7.3-3.3-13.5c2.3-4.8,5.7-6,8.1-6.2c1.4-0.1,2.7,0.1,4,0.5c4-5.4,13.7-19.9,9.3-30.7c-9-8.3-14.5-19.8-15.4-32
				c-0.7-19.1,14-33,27-39.3c0.8-3.9,3.5-7.2,7.2-8.7c6.6-2.6,12.2,2.6,14.8,5.2c8.2,7.8,15.5,16.6,21.8,26.1
				c3.4,5.2,6.6,10.5,9.4,16c10.1,19.4,22.5,49.8,24.1,83.9c0.9,17.5-1.3,31.6-6.6,43.2c-1.5,3.4-3.4,7.5-7.4,9.8
				c-2.4,1.4-5.3,1.6-7.8,0.5c-1.9-0.9-3.5-2.3-4.6-4.1C776.6,803,767.8,804.5,758.8,804.5z M728.7,798.5h0.4
				c2.7,0.3,5.4,0.7,8.2,1.1c16.2,2.2,32.9,4.5,47.2-4.9l0.2-0.1l1.4-0.9l0.8,1.5c0.8,1.8,2.2,3.2,4,4.1c1.7,0.7,3.6,0.6,5.2-0.3
				c3.2-1.8,4.8-5.4,6.2-8.4c5.1-11.2,7.2-24.9,6.4-41.9c-1.7-33.6-13.9-63.5-23.8-82.7c-2.8-5.4-5.9-10.7-9.2-15.8
				c-6.1-9.3-13.3-17.9-21.4-25.5c-2.6-2.4-6.9-6.5-11.8-4.5c-3,1.3-5.1,4-5.5,7.2l-0.1,0.8l-0.7,0.3c-12.4,5.8-26.6,18.9-26,36.9
				c0.8,11.6,6.1,22.4,14.7,30.2l0.2,0.2l0.1,0.3c5.6,12.9-6.4,29.9-10.2,34.8l-0.7,0.9l-1-0.4c-1.2-0.5-2.5-0.7-3.8-0.7
				c-2.4,0.2-4.3,1.7-5.7,4.5c-2.1,4.4,0.4,7.4,2.9,10.3c2,2.3,3.6,4.9,5,7.6c2.7,5.4,4.5,11.2,5.4,17.2c0.8,5.1,1.2,10.2,1.1,15.3
				v0.9c-0.1,1.3-0.1,2.7,0,4c0,3.1,1.7,6,4.3,7.6c1.7,1.2,3.9,1.5,5.9,0.8L728.7,798.5z M758.7,799.9c-7.1-0.2-14.2-0.9-21.2-2
				l0.2-1.5l-0.2,1.5l-0.4-0.1l-3.9-0.5l-2.3-0.3l1.3-2c0.9-1.5,1.7-3.1,2.1-4.8c2-8,2.2-16.4,0.4-24.5c-1.9-8.7-5.5-17-10.5-24.4
				c-0.4-0.6-0.8-1.2-1.2-1.8c-1.7-2.4-3.8-4.5-6.1-6.3l-1.2-0.9l0.9-1.2c3.8-5,12.6-17.8,11.5-29.8l-0.3-3.2l2.6,1.8
				c1.9,1.4,4,2.6,6.1,3.7c0.2,0.1,0.4,0.1,0.6,0.1c0.2-0.1,0.4-0.2,0.5-0.4c0.1-0.2,0.1-0.4,0.1-0.6c-0.1-0.2-0.2-0.4-0.4-0.5
				c-15.1-7.9-24.6-21.8-25.5-37.2c-0.6-16.4,11.8-28.7,23.6-34.6l0.9-0.5l0.8,0.7c26.8,25,46.1,59.4,54.4,96.8
				c3.5,19.9,2.9,38.9-1.7,56.4c-1.7,4.7-3.7,7.7-6.1,9.3C775.9,798.4,767.4,800,758.7,799.9L758.7,799.9z M735.7,794.8l1.8,0.2
				l0.4,0.1c15.3,2.1,31.2,4.3,44-4.2c1.8-1.2,3.5-3.8,4.9-7.7c4.4-17,5-35.5,1.6-55c-8.1-36.4-26.8-69.9-52.8-94.5
				c-10.7,5.7-21.6,16.8-21.1,31.4c0.8,14.3,9.8,27.2,24,34.7c0.9,0.5,1.5,1.3,1.8,2.2c0.6,2-0.5,4.1-2.5,4.7
				c-0.9,0.3-2,0.2-2.8-0.3c-1.3-0.7-2.7-1.5-4-2.3c-0.3,11.2-7.3,22.4-11.3,27.8c2.1,1.8,4,3.8,5.6,6.1c0.4,0.6,0.9,1.3,1.3,1.9
				c5.2,7.7,8.9,16.3,10.9,25.4c1.9,8.5,1.7,17.4-0.4,25.9C736.7,792.4,736.3,793.6,735.7,794.8L735.7,794.8z M793,798.1
				c-0.5,0-1.1-0.1-1.6-0.3c-2-1.1-3.4-2.9-3.9-5.1l-0.2-0.7l0.4-0.6c1.5-2.1,2.6-4.4,3.4-6.8c4.7-17.9,5.3-37.1,1.7-57.3
				c-5.2-23.2-14.5-45.3-27.6-65.2c-7.6-11.5-16.5-22.2-26.5-31.7l-0.5-0.4v-0.8c-0.3-3.2,1.6-6.3,4.6-7.6c3.9-1.5,7.8,2.1,10,4.2
				c11.7,11,21.9,24.8,30.2,40.9c9.9,19,22,48.7,23.6,82c0.8,16.7-1.2,30.2-6.2,41.1c-1.4,3-2.8,6.1-5.5,7.7
				C794.4,797.9,793.7,798.1,793,798.1z M790.6,792.5c0.4,1.1,1.1,2,2,2.6c0.2,0.1,0.5,0.2,1-0.1c1.9-1.1,3.1-3.7,4.3-6.3
				c4.8-10.5,6.8-23.5,6-39.8c-1.6-32.8-13.6-62.1-23.3-80.8c-8.2-15.8-18.2-29.3-29.7-40.1c-2.9-2.8-5.1-4.3-6.9-3.6l0,0
				c-1.7,0.8-2.8,2.5-2.7,4.3c10,9.6,18.9,20.2,26.5,31.8c13.3,20.2,22.7,42.6,28,66.2v0.2c3.6,20.6,3,40.2-1.8,58.5l-0.1,0.3
				C793.1,788,792,790.4,790.6,792.5L790.6,792.5z M725.9,797.5c-1,0-2-0.4-2.8-0.9c-0.9-0.5-1.7-1.3-2.3-2.1
				c-0.8-1.3-1.2-2.7-1.3-4.2c-0.1-1.3-0.1-2.5,0-3.8v-1c0.1-5.2-0.2-10.5-1.1-15.6c-0.9-6.1-2.8-12.1-5.5-17.6
				c-1.4-2.8-3.2-5.5-5.2-7.9c-2.7-3.2-4.2-5.3-2.6-8.6c1.1-2.3,2.5-3.5,4.4-3.6c4.3-0.3,9.7,5,12.1,8.4c5.5,7.7,9.4,16.5,11.5,25.7
				c1.7,7.8,1.6,16-0.4,23.8c-0.9,3.5-3,6.4-5.2,7.3C727,797.4,726.4,797.5,725.9,797.5L725.9,797.5z M709.8,735.1h-0.2
				c-0.3,0-1,0.1-1.9,2c-0.7,1.4-0.5,2.1,2.2,5.4c2.2,2.6,4.1,5.4,5.6,8.5c2.9,5.8,4.8,12.1,5.8,18.5c0.9,5.3,1.2,10.8,1.1,16.2v1
				c-0.1,1.2-0.1,2.3,0,3.5c0,1,0.3,2,0.8,2.8c0.4,0.5,0.8,0.9,1.4,1.3c1,0.7,1.5,0.5,1.8,0.4l0,0c1.1-0.4,2.7-2.4,3.4-5.3
				c1.9-7.3,2-15,0.3-22.4c-2-8.8-5.7-17.2-11-24.6C716.7,738.8,712.3,735.1,709.8,735.1z"/>
		</g>
		<g>
			<path class="st3" d="M758.7,800c-7.1-0.2-14.2-0.9-21.2-2l0.2-1.5l-0.2,1.5l-0.4-0.1l-3.9-0.5l-2.3-0.3l1.3-2
				c0.9-1.5,1.7-3.1,2.1-4.8c2-8,2.2-16.4,0.4-24.5c-1.9-8.7-5.5-17-10.5-24.4c-0.4-0.6-0.8-1.2-1.2-1.8c-1.7-2.4-3.8-4.5-6.1-6.3
				l-1.2-0.9l0.9-1.2c3.8-5,12.6-17.8,11.5-29.8l-0.3-3.2l2.6,1.8c1.9,1.4,4,2.6,6.1,3.7c0.2,0.1,0.4,0.1,0.6,0.1
				c0.2-0.1,0.4-0.2,0.5-0.4c0.1-0.2,0.1-0.4,0.1-0.6c-0.1-0.2-0.2-0.4-0.4-0.5c-15.1-7.9-24.6-21.8-25.5-37.2
				c-0.6-16.4,11.8-28.7,23.6-34.6l0.9-0.5l0.8,0.7c26.8,25,46.1,59.4,54.4,96.8c3.5,19.9,2.9,38.9-1.7,56.4
				c-1.7,4.7-3.7,7.7-6.1,9.3C775.9,798.4,767.4,800,758.7,800z M735.7,794.8l1.8,0.2l0.4,0.1c15.3,2.1,31.2,4.3,44-4.2
				c1.8-1.2,3.5-3.8,4.9-7.7c4.4-17,5-35.5,1.6-55c-8.1-36.4-26.8-69.9-52.8-94.5c-10.7,5.7-21.6,16.8-21.1,31.4
				c0.8,14.3,9.8,27.2,24,34.7c0.9,0.5,1.5,1.3,1.8,2.2c0.6,2-0.5,4.1-2.5,4.7c-0.9,0.3-2,0.2-2.8-0.3c-1.3-0.7-2.7-1.5-4-2.3
				c-0.3,11.2-7.3,22.4-11.3,27.8c2.1,1.8,4,3.8,5.6,6.1c0.4,0.6,0.9,1.3,1.3,1.9c5.2,7.7,8.9,16.3,10.9,25.4
				c1.9,8.5,1.7,17.4-0.4,25.9C736.7,792.4,736.3,793.6,735.7,794.8L735.7,794.8z"/>
		</g>
		<g>
			<path class="st3" d="M793,798.1c-0.5,0-1.1-0.1-1.6-0.3c-2-1.1-3.4-2.9-3.9-5.1l-0.2-0.7l0.4-0.6c1.5-2.1,2.6-4.4,3.4-6.8
				c4.7-17.9,5.3-37.1,1.7-57.3c-5.2-23.2-14.5-45.3-27.6-65.2c-7.6-11.5-16.5-22.2-26.5-31.7l-0.5-0.4v-0.8
				c-0.3-3.2,1.6-6.3,4.6-7.6l0,0c3.9-1.5,7.8,2.1,10,4.2c11.7,11,21.9,24.8,30.2,40.9c9.9,19,22,48.7,23.6,82
				c0.8,16.7-1.2,30.2-6.2,41.1c-1.4,3-2.8,6.1-5.5,7.7C794.4,797.9,793.7,798.1,793,798.1z M790.6,792.5c0.4,1.1,1.1,2,2,2.6
				c0.2,0.1,0.5,0.2,1-0.1c1.9-1.1,3.1-3.7,4.3-6.3c4.8-10.5,6.8-23.5,6-39.8c-1.6-32.8-13.6-62.1-23.3-80.8
				c-8.2-15.8-18.2-29.3-29.7-40.1c-2.9-2.8-5.1-4.3-6.9-3.6l0,0c-1.7,0.8-2.8,2.5-2.7,4.3c10,9.6,18.9,20.2,26.5,31.8
				c13.3,20.2,22.7,42.6,28,66.2v0.2c3.6,20.6,3,40.2-1.8,58.5l-0.1,0.3C793.1,788,792,790.4,790.6,792.5L790.6,792.5z"/>
		</g>
		<g>
			<path class="st6" d="M726.9,795.9c-1,0.4-2.2,0.2-3.1-0.5c-0.7-0.4-1.3-1-1.8-1.7c-0.6-1.1-1-2.3-1-3.5c-0.1-1.2-0.1-2.4,0-3.6
				v-1c0.1-5.3-0.3-10.6-1.1-15.9c-1-6.3-2.9-12.3-5.7-18c-1.5-2.9-3.3-5.7-5.4-8.2c-2.6-3.1-3.6-4.6-2.4-7c1.3-2.6,2.7-2.8,3.2-2.8
				c3.5-0.3,8.5,4.5,10.8,7.8c5.4,7.5,9.2,16.1,11.3,25.1c1.7,7.6,1.6,15.5-0.3,23.1C730.4,792.6,728.7,795.2,726.9,795.9z"/>
		</g>
		<g>
			<path class="st3" d="M725.9,797.5c-1,0-2-0.4-2.8-0.9c-0.9-0.5-1.7-1.3-2.3-2.1c-0.8-1.3-1.2-2.7-1.3-4.2c-0.1-1.3-0.1-2.5,0-3.8
				v-1c0.1-5.2-0.2-10.5-1.1-15.6c-0.9-6.1-2.8-12.1-5.5-17.6c-1.4-2.8-3.2-5.5-5.2-7.9c-2.7-3.2-4.2-5.3-2.6-8.6
				c1.1-2.3,2.5-3.5,4.4-3.6c4.3-0.3,9.7,5,12.1,8.4c5.5,7.7,9.4,16.4,11.5,25.7c1.7,7.8,1.6,16-0.4,23.8c-0.9,3.5-3,6.4-5.2,7.3
				l0,0C727,797.4,726.4,797.5,725.9,797.5z M709.8,735.1h-0.2c-0.3,0-1,0.1-1.9,2c-0.7,1.4-0.5,2.1,2.2,5.4
				c2.2,2.6,4.1,5.4,5.6,8.5c2.9,5.8,4.8,12.1,5.8,18.5c0.9,5.3,1.2,10.8,1.1,16.2v1c-0.1,1.2-0.1,2.3,0,3.5c0,1,0.3,2,0.8,2.8
				c0.4,0.5,0.8,0.9,1.4,1.3c1,0.7,1.5,0.5,1.8,0.4l0,0c1.1-0.4,2.7-2.4,3.4-5.3c1.9-7.3,2-15,0.3-22.4c-2-8.8-5.7-17.2-11-24.6
				C716.7,738.8,712.3,735.1,709.8,735.1z"/>
		</g>
		<g>
			<path class="st3" d="M712.1,479.8h-1.8c-28.2-1.1-46.1-27.5-46.8-28.6c-1.8-3.2-0.6-7.3,2.6-9c2.8-1.6,6.4-0.8,8.4,1.7l0,0
				c0.2,0.2,15,21.9,36.3,22.7c14.8,0.5,29.7-8.9,44.6-28c2.3-2.8,6.5-3.2,9.3-0.9c2.7,2.2,3.2,6.2,1.1,9
				C748.8,468.7,730.7,479.8,712.1,479.8z"/>
		</g>
		<g>
			<path class="st3" d="M487.4,479.8h-1.8c-28.2-1.1-46.1-27.5-46.8-28.6c-1.8-3.2-0.7-7.2,2.4-9.1c2.9-1.7,6.5-0.9,8.6,1.7
				c0.2,0.3,15,21.9,36.4,22.7c14.7,0.5,29.7-8.9,44.5-28c2.3-2.8,6.5-3.2,9.3-0.9c2.7,2.2,3.2,6.2,1.1,9
				C524.1,468.7,506,479.8,487.4,479.8z"/>
		</g>
		<g>
			<path class="st3" d="M608.4,562.1c-14.8,0-26.6-11.7-27.2-12.3c-2.5-2.7-2.4-6.9,0.3-9.4c2.6-2.4,6.5-2.4,9.1,0l0,0
				c0.1,0.1,9.1,9,18.7,8.3c4.6-0.3,8.8-2.8,12.6-7.7c2.3-2.9,6.4-3.4,9.3-1.1s3.4,6.4,1.1,9.3l0,0c-6.3,8-13.8,12.3-22.3,12.8
				C609.5,562.1,608.9,562.1,608.4,562.1z"/>
		</g>
		<g>
			<path class="st7" d="M855,542.8c2.4-4,4.5-8.4,4.3-13.2s-2.7-9.6-4.1-14.1c-7.2-4.1-13.2-10-17.5-17.2c-4.7-8.1-7.1-17.3-7-26.7
				c-8.6-3.1-15.1-10.1-17.5-18.9c-1-3.8-3.8-17.3,4.3-30.3c5.5-8.9,14.7-14.9,25.7-17c1.6-0.3,3.2-0.5,4.8-0.6
				c-0.8-1.7-1.4-3.5-1.9-5.4c-2.4-10.5,1.4-21.4,9.8-28.1c2.9-2.4,4.6-5.9,4.9-9.7c0-3.2-1.5-6.3-4-8.3c-7.1,2.7-15.1,1.6-21.2-3
				l-0.3-0.2l-1-0.5l-5-2.3c-9.7-4.5-14.8-15.4-12-25.7c-2.9,3.7-6.7,6.6-11,8.5c-4.9,2.1-10.1,3.2-15.4,3.3c-5.1,0-10.1-1-14.7-3.1
				c-18.2-8-25-27.6-31-44.9c-0.9-2.5-1.7-4.9-2.6-7.4c-2.8-7.6-6.4-13.2-11.3-17.1c-0.7,6.2-3.4,11.9-7.7,16.3
				c-3.9,4-8.6,7.2-13.8,9.4c-6.3,2.4-13.5,1.1-19.6,4c-5.9,2.8-9.4,9.6-9.3,16.1s3.1,12.8,7.2,17.9c9.9,12.1,24,21.6,35.1,32.8
				c13.3,13.3,25.5,27.7,36.7,42.8c22.2,30.2,39,64.3,47.9,100.7c0.4,1.8,4.6,21.5,4.3,21.5c1.2-0.2,2.5-0.2,3.7-0.3
				c2.3,0,4.7,0.3,6.9,0.9C832.6,525.7,844.8,532,855,542.8z"/>
		</g>
		<g>
			<path class="st6" d="M453.5,778.8c0.9-7.8,3.6-15.2,7.8-21.7c5.1-7.7,11.7-14.4,19.4-19.5c3.3-2.3,9.7-4.9,12.8-3.5
				c0.4,0.2,1.7,0.8,2,3.7c0.2,2.6-1.2,3.7-4.8,5.7c-2.9,1.6-5.5,3.5-7.9,5.8c-4.6,4.3-8.6,9.4-11.7,14.9c-2.7,4.6-4.9,9.5-6.6,14.5
				l-0.3,0.9c-0.4,1.2-0.8,2.4-1.3,3.4c-0.5,1.1-1.2,2.2-2.2,2.9c-0.7,0.5-1.5,0.8-2.3,1c-1.1,0.3-2.2,0.1-3.1-0.6
				C454,785,453.2,781.9,453.5,778.8z"/>
		</g>
		<g>
			<path class="st4" d="M737.7,796.5l-4.3-0.6c1-1.6,1.8-3.3,2.3-5.2c2.1-8.3,2.2-16.9,0.4-25.2c-2-8.9-5.6-17.4-10.7-24.9
				c-0.4-0.6-0.8-1.2-1.3-1.9c-1.8-2.5-4-4.8-6.5-6.6c3.7-4.8,13-18.2,11.8-30.8c2,1.4,4.1,2.7,6.2,3.8c1.1,0.5,2.5,0.1,3-1.1
				c0.5-1.1,0.1-2.4-0.9-3c-14.6-7.7-23.9-21.2-24.8-35.9c-0.6-15.8,11.6-27.6,22.8-33.2c26.6,24.8,45.7,58.8,54,96
				c3.5,19.6,2.9,38.4-1.6,55.7c-1.5,4.3-3.3,7.1-5.5,8.5C769.4,800.9,753.3,798.7,737.7,796.5z"/>
		</g>
		<g>
			<path class="st2" d="M764.5,691.6c-0.7-0.2-3.4,1.2-4.1,1.4c-3.5,1-7.2,1.4-10.8,1.3c-18.8-0.5-35.8-18.2-30.5-37.6
				C719,656.7,729.4,681.1,764.5,691.6z"/>
		</g>
		<g>
			<path class="st2" d="M510.9,649c-0.4,0.6,0,3.6,0,4.4c-0.2,3.6-1,7.2-2.3,10.6c-6.5,17.6-28.9,28-45.5,16.6
				C463.1,680.7,489.6,678.7,510.9,649z"/>
		</g>
		<g>
			<path class="st2" d="M1007.5,417c9.5,11.7,22.6,19,34.9,19.4c4.7,0.2,8-1.2,10-4c1.7-2.4,2.6-6,1.4-9.1c-2.9-0.7-10-3.9-17.8-18
				l3.5-2c5.3,9.5,10,13.4,12.9,15c-0.4-12.6,22.1-24.9,33.5-31l2.7-1.5c9.9-5.6,20.6-10.5,31-15.3c16-7.4,32.5-15.1,46.6-25.2
				c5.9-4.3,11-11.5,8.9-18c-0.7-2.6-2.6-4.6-5-5.7c-2.8-1.1-5.9-1-8.6,0.4c-3.2,1.7-6.3,3.5-9.3,5.6c-2.3,1.5-4.8,3.2-7.3,4.6
				c-13.8,7.7-28.5,13.7-42.4,19.1l-1.5-3.8c8.9-3.5,18.1-7.2,27.2-11.4l-0.2-0.5c9.4-4,17.1-11.2,21.6-20.4
				c7.1-14.2,10.2-35.7,2-47.8c-1-1.5-3.2-4.1-6.2-4.5c-5-0.7-10.3,3.6-12.3,8c-1.5,3.2-1.7,6.9-1.9,10.5
				c-0.7,19.9-8.9,38.3-22.7,50.5c1,1.1,2,2.3,3,3.6l-3.2,2.4c-6.1-8.1-12.1-11.9-17.7-11.4l-0.3-4c5.8-0.5,11.6,2.3,17.3,8.3
				l-1.7-1.9c3.7-3.3,6.9-7,9.6-11l-0.2-0.1c8.7-34.5-14.5-51.4-15.5-52.1l-0.2-0.2c-2.3-2-4.9-3.7-7.8-4.9
				c-5.5-2.2-10.2-1.3-13.8,2.7c-0.4,0.5-0.7,1-0.9,1.6c-0.1,1.4-0.2,2.8-0.5,4.2c0,0.6,0.1,1.2,0.2,1.7c0.9,3.4,3.7,5.3,6.9,7.4
				c3.2,2,6,4.4,8.4,7.2c3.3,3.5,5.5,7.9,6.5,12.6c1.1,6.4-1.3,12.8-6.7,18c-6.4,6-14.7,9.4-23.4,9.6c-0.7,0-1.4,0-2.1-0.1l0.6,0.3
				l-1.6,3.7c-3.6-1.4-6.4-4.2-7.7-7.8c-3.9-10,3.2-25.6,9-38.1c2.7-5.8,5.2-11.4,5.8-14.8c-0.1-1.5,0.1-3.1,0.5-4.5
				c0.1-2.7-0.4-5.3-1.5-7.7c-0.9-2.1-2.6-3.8-4.8-4.6c-3.2-1-6.7,0.4-9.2,1.7c-7.1,3.9-10.2,13.2-13,21.5c-0.4,1.2-0.8,2.4-1.2,3.5
				c-1.7,4.8-3.3,9.6-4.8,14.4c-1.8,5.4-3.6,11-5.5,16.4c-3.9,10.8-9.2,21-14.4,30.9c-2.2,4.2-4.5,8.5-6.6,12.9
				c-4,8.1-11.4,27.9,4.4,38l-2.2,3.4c-5.7-3.5-9.7-9.1-11-15.6c-3.3,1.8-5.7,5-6.6,8.6C994.9,396.5,1000.8,408.8,1007.5,417z"/>
		</g>
		<g>
			<path class="st3" d="M1004.4,419.6c10.3,12.6,24.4,20.4,37.9,20.9h0.9c5.6,0,9.9-2,12.5-5.7c3-4.3,3.5-10,1.2-14.1l0,0
				c-4.5-10.5,21.2-24.4,30.9-29.7l2.7-1.5c9.8-5.5,20.4-10.4,30.7-15.2c16.1-7.5,32.8-15.2,47.3-25.6c6.6-4.7,13.3-13.5,10.4-22.5
				c-1.1-3.7-3.7-6.7-7.3-8.2c-3.9-1.6-8.2-1.4-11.9,0.5c-3.4,1.7-6.6,3.7-9.7,5.9c-0.7,0.5-1.5,1-2.2,1.5c2.2-2.7,4-5.6,5.6-8.6
				c7.6-15.2,10.8-38.6,1.7-51.9c-2.4-3.5-5.6-5.8-8.9-6.2c-7.2-1-13.9,4.5-16.6,10.3c-1.8,3.9-2.1,8.1-2.2,12
				c-0.3,9.3-2.4,18.4-6.2,26.9c2.5-29-17-44.3-18.8-45.6c-1-0.9-8.3-7.3-16.6-7c-3.3,0.1-6.5,1.4-9,3.5c-0.3-1.5-0.8-2.9-1.4-4.2
				c-1.4-3.2-4-5.6-7.2-6.7c-3.6-1.1-7.8-0.4-12.3,2c-8.4,4.6-12,15.2-14.8,23.7c-0.4,1.2-0.8,2.4-1.2,3.5
				c-1.7,4.8-3.3,9.7-4.8,14.4c-1.7,5.4-3.5,10.9-5.5,16.3c-3.8,10.6-9.1,20.7-14.2,30.4c-2.2,4.2-4.5,8.6-6.6,13
				c-4.2,8.5-6.1,16.4-5.7,23.3c-5.3,2.7-8.7,6.7-9.9,12C990.5,397.5,997.6,411.2,1004.4,419.6z M1074.8,275.6
				c1.9,2.5,4.3,4.6,7,6.1c2.8,1.8,5.4,3.9,7.6,6.5c2.8,2.9,4.7,6.6,5.5,10.5c1.1,6.5-2.4,11.5-5.5,14.5c-6.3,6.1-16.7,9.6-24.3,8.1
				c-1.3-0.2-2.6-0.7-3.6-1.6c-2.8-8.5,3.8-22.8,9-34.4C1072.2,281.8,1073.7,278.5,1074.8,275.6L1074.8,275.6z M997,387.7
				c0.6-2.6,2-5,4-6.7c0.8-0.8,2.1-0.7,2.8,0.1c0.2,0.2,0.4,0.5,0.5,0.8c1.5,4.7,4.5,8.7,8.4,11.6c0.9,0.7,2.1,0.5,2.8-0.3
				c0-0.1,0.1-0.1,0.1-0.2l0,0c0.6-0.9,0.4-2-0.5-2.7c-13.9-10.4-6.7-29.2-2.9-37c2.1-4.3,4.4-8.7,6.6-12.9
				c5.2-9.9,10.5-20.1,14.4-30.9c2-5.5,3.8-11,5.5-16.4c1.5-4.7,3.1-9.6,4.8-14.4c0.4-1.1,0.8-2.3,1.2-3.5c2.8-8.2,5.9-17.6,13-21.5
				c2.4-1.3,6-2.7,9.2-1.7c2.2,0.8,3.9,2.5,4.8,4.6c1.1,2.4,1.6,4.9,1.5,7.5c0,0.2,0,0.3-0.1,0.5c-0.3,1.3-0.5,2.7-0.4,4.1
				c0,0.1,0,0.3,0,0.4c-0.7,3.5-3.2,8.9-5.8,14.6c-5.7,12.5-12.8,28.1-9,38.1c1.1,2.8,3.1,5.2,5.7,6.8c1,0.6,2.2,0.2,2.7-0.7
				c0-0.1,0.1-0.2,0.1-0.3l0.7-1.7l-0.6-0.3c0.7,0,1.4,0.1,2.1,0.1c8.7-0.2,17.1-3.6,23.4-9.6c5.3-5.2,7.7-11.6,6.7-18
				c-0.9-4.7-3.2-9.1-6.5-12.6c-2.4-2.8-5.3-5.2-8.4-7.2c-3.3-2-6-4-6.9-7.4c-0.1-0.6-0.2-1.2-0.3-1.8c0.2-1.4,0.4-2.8,0.5-4.2
				c0.2-0.6,0.5-1.1,0.9-1.6c3.7-3.9,8.3-4.8,13.8-2.7c2.9,1.2,5.5,2.8,7.8,4.9l0.2,0.2c1,0.7,24.3,17.6,15.5,52.1l0.2,0.1
				c-2.4,3.5-5.1,6.7-8.2,9.7c-0.8,0.7-0.9,2-0.1,2.8l0.4,0.4c-5-5.2-10-8-15-8.3c-1.1,0-2,0.8-2.1,1.9c0,0.1,0,0.2,0,0.3l0,0
				c0.1,1,0.9,1.8,1.9,1.8c4.8,0.3,9.7,3.7,14.8,9.9c0.7,0.8,1.9,1,2.8,0.3l0,0c0.9-0.7,1.1-1.9,0.4-2.8c0,0,0-0.1-0.1-0.1l-0.4-0.5
				c-0.7-0.8-0.6-2,0.2-2.8c12.9-12.2,20.6-30,21.2-49.2c0.1-3.5,0.4-7.3,1.9-10.5c2-4.4,7.3-8.7,12.3-8c3,0.4,5.1,3,6.2,4.5
				c8.3,12,5.2,33.6-2,47.8c-4.8,9.5-15.9,18.3-25.3,22.7c-1.6,0.7-16.2,6.7-21.5,8.8c-1,0.4-1.5,1.6-1.1,2.6c0,0,0,0,0,0l0,0
				c0.4,1,1.6,1.5,2.6,1.1c0,0,0,0,0,0c13.3-5.2,27.3-11,40.5-18.4c2.5-1.4,4.9-3,7.3-4.6c3-2.1,6.1-3.9,9.3-5.6
				c2.7-1.4,5.8-1.5,8.6-0.4c2.4,1.1,4.3,3.2,5,5.7c2,6.5-3,13.8-8.9,18c-14.1,10.2-30.7,17.8-46.6,25.2c-10.3,4.8-21,9.8-31,15.3
				l-2.7,1.5c-10.4,5.7-30.3,16.4-33.2,27.9c-0.2,1.1-1.3,1.8-2.4,1.5c-0.3-0.1-0.6-0.2-0.8-0.4c-3.6-3.2-6.7-7.1-9-11.4
				c-0.6-0.9-1.8-1.3-2.7-0.7l0,0c-1,0.5-1.3,1.7-0.8,2.7c0,0,0,0.1,0.1,0.1c6.6,11.3,12.6,14.8,15.8,15.9c0.7,0.2,1.2,0.8,1.3,1.5
				c0.5,2.8-0.1,5.6-1.7,7.9c-2,2.8-5.3,4.2-10,4c-12.3-0.5-25.3-7.7-34.9-19.4C1000.8,408.8,994.9,396.5,997,387.7z"/>
			<path class="st3" d="M1043.2,442h-0.9c-13.9-0.5-28.5-8.5-39-21.5c-7.1-8.7-14.4-22.8-11.6-34.1c1.3-5.4,4.6-9.6,9.8-12.5
				c-0.2-7,1.8-14.7,5.9-23c1.9-4,4-8,6-11.8l0.6-1.2c5.1-9.7,10.3-19.7,14.1-30.3c1.9-5.4,3.7-10.9,5.5-16.3l0.1-0.2
				c1.5-4.7,3.1-9.5,4.8-14.2c0.4-1.1,0.8-2.2,1.1-3.3c3-8.8,6.6-19.7,15.6-24.6c4.9-2.6,9.5-3.4,13.5-2.1c3.7,1.3,6.6,4,8.1,7.5
				c0.4,0.7,0.7,1.5,0.9,2.3c2.4-1.5,5.2-2.4,8.1-2.5c7.9-0.2,14.9,5,17.5,7.3c0.8,0.5,18,13.5,19.5,38.4c1.9-6,2.9-12.2,3.1-18.6
				c0.1-4.1,0.4-8.4,2.4-12.6c2.9-6.2,10.2-12.2,18.1-11.1c3.7,0.5,7.3,3,9.9,6.8c9.5,13.8,6.2,37.8-1.6,53.4
				c-0.4,0.9-0.9,1.7-1.4,2.6c1.9-1.2,3.8-2.3,5.8-3.3c4.1-2.1,8.9-2.3,13.2-0.5c3.9,1.7,6.9,5.1,8.1,9.2c3,9.8-4,19.1-11,24.1
				c-14.6,10.5-31.3,18.2-47.5,25.7c-10.3,4.8-20.9,9.7-30.6,15.1l-2.7,1.5c-8.4,4.6-34.1,18.5-30.2,27.8c2.5,4.6,2,10.8-1.3,15.6
				C1054,439.8,1049.3,442,1043.2,442z M1064.6,249.1c-2.5,0-5.2,0.8-8.1,2.4c-7.9,4.4-11.4,14.6-14.2,22.9
				c-0.4,1.3-0.8,2.4-1.2,3.5c-1.7,4.7-3.2,9.5-4.7,14.2l-0.1,0.2c-1.7,5.4-3.5,10.9-5.5,16.3c-3.9,10.7-9.2,20.8-14.3,30.6
				l-0.6,1.2c-2,3.8-4,7.8-6,11.7c-4,8.2-5.9,15.8-5.6,22.5c0,0.6-0.3,1.1-0.8,1.4c-4.9,2.5-8,6.2-9.2,11
				c-2.5,10.3,4.4,23.4,11,31.6c0,0,0,0,0,0c10,12.3,23.7,19.9,36.8,20.4l0.9,0c5.1,0,9-1.8,11.3-5.1c2.7-3.9,3.2-8.9,1.1-12.5
				c0,0,0-0.1-0.1-0.1c-4.4-10.4,14.5-22.3,31.5-31.6l2.7-1.5c9.8-5.5,20.4-10.4,30.7-15.2c16.2-7.5,32.8-15.2,47.1-25.5
				c6.2-4.4,12.5-12.6,9.9-20.9c-1-3.3-3.3-5.9-6.4-7.3c-3.4-1.4-7.3-1.3-10.7,0.4c-3.3,1.7-6.5,3.6-9.6,5.8l-0.4,0.3
				c-0.6,0.4-1.2,0.8-1.9,1.2c-0.6,0.4-1.4,0.3-1.9-0.3c-0.5-0.5-0.5-1.3,0-1.9c2.1-2.6,3.9-5.4,5.4-8.3
				c7.5-14.8,10.6-37.5,1.8-50.4c-2.2-3.2-5-5.2-7.9-5.6c-6.5-0.9-12.6,4.2-15,9.4c-1.7,3.6-2,7.6-2.1,11.4
				c-0.3,9.5-2.4,18.7-6.3,27.4c-0.3,0.7-1,1-1.7,0.8c-0.7-0.2-1.2-0.8-1.1-1.6c2.5-28.8-17.4-43.7-18.2-44.3c0,0-0.1,0-0.1-0.1
				c-2.4-2.1-8.7-6.9-15.5-6.6c-3,0.1-5.8,1.2-8.1,3.2c-0.4,0.3-0.9,0.4-1.4,0.3c-0.5-0.2-0.9-0.6-1-1.1c-0.3-1.3-0.7-2.7-1.3-3.9
				c-1.2-2.8-3.5-5-6.4-6C1066.7,249.2,1065.7,249.1,1064.6,249.1z M1043.2,437.9c-0.3,0-0.6,0-0.9,0c-12.7-0.5-26.2-8-36-20
				c-7-8.5-13-21.2-10.8-30.5c0.7-2.9,2.2-5.5,4.5-7.5c1.4-1.3,3.6-1.2,4.9,0.2c0.4,0.4,0.7,0.9,0.8,1.4c1.4,4.3,4.2,8.1,7.9,10.9
				c0.2,0.1,0.3,0.2,0.4,0.1c0.1,0,0.2,0,0.4-0.2c0.2-0.3,0.1-0.6-0.1-0.8c-14.8-11.1-7.3-30.8-3.3-38.8c2.2-4.5,4.5-8.9,6.6-12.9
				c5.1-9.8,10.4-19.9,14.3-30.7c1.9-5.2,3.6-10.5,5.3-15.6l0.3-1c1.5-4.7,3.1-9.5,4.7-14.2c0.3-0.8,0.6-1.7,0.9-2.6l0.3-0.9
				c2.8-8.5,6.1-18.1,13.7-22.3c2.7-1.5,6.7-3,10.3-1.8c2.6,1,4.7,3,5.7,5.5c1.1,2.5,1.7,5.3,1.6,8.1c0,0.3-0.1,0.5-0.1,0.7
				c-0.3,1.2-0.4,2.4-0.4,3.6c0,0.2,0,0.5,0,0.7c0,0,0,0.1,0,0.1c-0.8,3.6-3.3,9.1-5.9,14.8c-5.6,12.3-12.6,27.6-9,37
				c1,2.5,2.8,4.7,5.1,6c0.2,0.1,0.3,0.1,0.4,0s0.2-0.1,0.3-0.2c0,0,0-0.1,0.1-0.1l0.3-0.6c-0.2-0.3-0.3-0.8-0.2-1.2
				c0.2-0.7,0.8-1.1,1.5-1.1c0.6,0,1.3,0.1,2,0.1c8.3-0.2,16.3-3.5,22.4-9.2c5-4.9,7.2-10.8,6.2-16.7c-0.9-4.4-3-8.5-6.1-11.8
				c-2.4-2.7-5.1-5-8.1-6.9c-3.2-2-6.5-4.3-7.5-8.2c-0.2-0.7-0.3-1.4-0.3-2c0-0.1,0-0.2,0-0.3c0.2-1.3,0.4-2.7,0.4-4
				c0-0.1,0-0.2,0.1-0.3c0.2-0.8,0.6-1.5,1.2-2.1c4.1-4.4,9.4-5.4,15.5-3.1c3,1.3,5.8,3,8.2,5.1l0.1,0.1
				c1.5,1.1,24.6,18.2,16.3,52.9c0.2,0.4,0.1,0.9-0.2,1.3c-2.4,3.6-5.3,6.9-8.4,9.9c-0.2,0.2-0.2,0.5-0.1,0.8l0.4,0.4c0,0,0,0,0,0
				c0.1-0.1,0.2-0.2,0.3-0.4c12.5-11.9,20.1-29.4,20.7-48.2c0.1-3.7,0.4-7.6,2-11c2.2-4.9,8.2-9.6,13.9-8.8c3.4,0.5,5.8,3.1,7.2,5.1
				c8.6,12.5,5.4,34.7-1.9,49.3c-5.1,10.1-16.7,19-26,23.4c-1.6,0.8-16.4,6.7-21.6,8.8c-0.3,0.1-0.4,0.4-0.3,0.7c0,0,0,0,0,0
				c0.1,0.3,0.4,0.4,0.7,0.3c0,0,0,0,0,0c12.5-4.9,26.9-10.7,40.3-18.3c2.4-1.3,4.7-2.8,7.2-4.5c3-2.1,6.2-4,9.4-5.7
				c3.1-1.6,6.6-1.7,9.8-0.4c2.9,1.3,5,3.7,5.9,6.7c2.2,7.3-3.2,15.1-9.5,19.6c-14.3,10.3-30.8,17.9-46.9,25.4
				c-9.7,4.5-20.7,9.6-30.9,15.3l-2.7,1.5c-9.6,5.2-29.7,16.1-32.4,27c-0.4,1.8-2.2,3-4.1,2.6c-0.5-0.1-1-0.4-1.5-0.7
				c-3.8-3.4-7-7.4-9.4-11.8c-0.1-0.2-0.4-0.3-0.7-0.2c-0.2,0.1-0.2,0.2-0.3,0.3c0,0.1,0,0.2,0,0.4c6.5,11,12.2,14.3,15,15.3
				c1.1,0.4,2,1.3,2.3,2.5c0.6,3.2-0.1,6.5-2,9.1C1051.4,436.3,1047.9,437.9,1043.2,437.9z M1002.4,381.9c-0.1,0-0.3,0-0.4,0.1
				c-1.8,1.6-3,3.7-3.6,6c0,0,0,0,0,0c-2,8.3,3.9,20.3,10.2,28c9.3,11.4,21.9,18.4,33.8,18.9c4.2,0.2,7-0.9,8.7-3.4
				c1.4-2,1.9-4.4,1.5-6.8c0-0.1-0.2-0.3-0.4-0.3c-3.2-1.1-9.6-4.8-16.5-16.6c0,0,0-0.1-0.1-0.1c-0.4-0.8-0.5-1.8-0.3-2.7
				s0.9-1.6,1.7-2.1c1.6-0.9,3.7-0.3,4.7,1.3c2.3,4.2,5.2,7.9,8.7,11c0,0,0.1,0,0.2,0.1c0.3,0.1,0.6-0.1,0.6-0.4
				c3.1-12.2,23.1-23,33.9-28.9l2.7-1.5c10.3-5.7,21.3-10.9,31.1-15.4c15.9-7.4,32.3-15,46.4-25.1c5.5-3.9,10.2-10.5,8.4-16.4
				c-0.6-2.2-2.2-3.9-4.2-4.8c-2.3-0.9-5-0.8-7.3,0.3c-3.1,1.6-6.2,3.5-9.1,5.5c-2.6,1.7-4.9,3.3-7.4,4.6
				c-13.6,7.6-28.2,13.5-40.7,18.5c0,0,0,0,0,0c-1.8,0.7-3.8-0.2-4.5-2c0,0,0-0.1,0-0.1c-0.6-1.8,0.3-3.7,2-4.4
				c5.6-2.2,20-8.1,21.4-8.7c8.8-4.2,19.9-12.6,24.6-22.1c7-13.8,10.1-34.7,2.1-46.3c-0.9-1.3-2.7-3.5-5.2-3.9
				c-4.2-0.6-9,3.2-10.8,7.2c-1.4,2.9-1.6,6.5-1.7,9.9c-0.7,19.5-8.6,37.8-21.7,50.2c-0.2,0.2-0.2,0.5-0.1,0.7l0.5,0.6
				c0,0,0.1,0.1,0.1,0.2c0.6,0.7,0.8,1.7,0.6,2.6c-0.1,0.9-0.6,1.7-1.4,2.3c-1.5,1.1-3.6,0.9-4.8-0.6c-4.8-6-9.5-9.1-13.8-9.4
				c-1.7-0.1-3.1-1.5-3.3-3.2c0-0.1,0-0.3,0-0.5c0.1-1.9,1.7-3.4,3.6-3.3c4.4,0.3,8.8,2.3,13.2,6.1c0.1-0.2,0.3-0.4,0.5-0.6
				c2.8-2.6,5.3-5.6,7.5-8.7c0-0.1,0-0.2,0-0.3c8.5-33.7-14-49.9-14.9-50.6c0,0-0.1,0-0.1-0.1l-0.2-0.2c-2.2-2-4.7-3.5-7.4-4.6
				c-4.9-1.9-8.9-1.2-12.2,2.3c-0.2,0.2-0.4,0.5-0.5,0.9c-0.1,1.3-0.2,2.7-0.4,4c0,0.4,0.1,0.9,0.2,1.3c0.7,2.6,2.8,4.3,6.2,6.4
				c3.3,2,6.2,4.6,8.8,7.5c3.5,3.7,5.8,8.3,6.8,13.3c1.1,6.9-1.4,13.8-7.1,19.3c-6.7,6.3-15.3,9.8-24.4,10c-0.2,0-0.3,0-0.5,0
				l-0.4,1c0,0.1-0.1,0.3-0.2,0.4c-1,1.7-3.1,2.2-4.7,1.3c-2.9-1.7-5.2-4.4-6.4-7.5c-4-10.6,3.2-26.5,9-39.2
				c2.6-5.6,5-10.9,5.7-14.2c0-0.1,0-0.1,0-0.2c0-1.5,0.1-3,0.5-4.5c0-0.1,0-0.1,0-0.2c0.1-2.3-0.4-4.7-1.3-6.8
				c-0.7-1.8-2.2-3.2-4-3.9c-2.6-0.8-5.8,0.4-8,1.6c-6.6,3.6-9.6,12.7-12.3,20.7l-0.3,0.9c-0.3,0.9-0.6,1.8-0.9,2.6
				c-1.6,4.7-3.2,9.5-4.7,14.1l-0.3,1c-1.7,5.2-3.4,10.5-5.3,15.7c-4,11-9.3,21.2-14.5,31.1c-2.1,3.9-4.4,8.4-6.6,12.8
				c-3.6,7.3-10.6,25.4,2.5,35.2c1.4,1.1,1.8,3.1,0.8,4.7c-0.1,0.1-0.1,0.2-0.2,0.3c-0.6,0.7-1.4,1.2-2.3,1.3
				c-0.9,0.1-1.8-0.2-2.6-0.7c-4.2-3.1-7.3-7.3-8.9-12.3c0-0.1-0.1-0.2-0.1-0.3C1002.7,381.9,1002.5,381.9,1002.4,381.9z M997,387.7
				L997,387.7L997,387.7z M1092.6,324c-0.3,0-0.5,0.2-0.5,0.5c0,0.3,0.2,0.6,0.5,0.6c5.2,0.3,10.5,3.9,15.9,10.5
				c0.2,0.2,0.5,0.2,0.7,0.1c0.2-0.1,0.2-0.3,0.2-0.4c0-0.1,0-0.2-0.1-0.4l-0.5-0.6c-0.5-0.6-0.8-1.3-0.8-2c-0.5,0.1-1,0-1.4-0.4
				C1101.9,326.9,1097.2,324.3,1092.6,324C1092.6,324,1092.6,324,1092.6,324z M1068.7,323.1c-1.3,0-2.6-0.1-3.9-0.3
				c-1.5-0.2-3-0.9-4.2-1.9c-0.2-0.2-0.4-0.4-0.5-0.7c-2.9-9,3.7-23.6,9-35.3l0.1-0.1c1.8-3.8,3.2-6.9,4.3-9.7
				c0.2-0.5,0.6-0.9,1.2-0.9c0.5-0.1,1.1,0.2,1.4,0.6c1.8,2.4,4,4.3,6.5,5.7c3,1.9,5.7,4.2,8,6.8c2.9,3.1,5,7,5.8,11.2
				c1.2,7.2-2.6,12.6-5.9,15.8C1084.8,319.7,1076.1,323.1,1068.7,323.1z M1062.8,318.9c0.8,0.5,1.7,0.9,2.6,1c7.2,1.4,17.1-2,23-7.7
				c2.8-2.8,6-7.3,5.1-13.2c-0.7-3.6-2.5-7-5.1-9.8c-2.1-2.5-4.6-4.5-7.3-6.2c-2.1-1.2-4.1-2.7-5.8-4.5c-0.9,2.2-2.1,4.7-3.4,7.5
				l0,0.1C1066.8,297.2,1060.6,310.9,1062.8,318.9z"/>
		</g>
		<g>
			<path class="st3" d="M1063.5,343.4c2.4-0.7,4.9-1.3,7.3-1.8c2-0.5,4-0.9,5.9-1.4c1.1-0.3,2.2,0.3,2.4,1.4l0,0
				c0.3,1.1-0.3,2.2-1.4,2.5c0,0,0,0-0.1,0c-2,0.5-4.1,1-6,1.5c-2.4,0.5-4.8,1.1-7.2,1.8c-14.1,3.9-29.3,14.5-32.5,29.7
				c-0.2,1-1.2,1.7-2.2,1.5l0,0c-1.1-0.1-1.9-1.2-1.7-2.3c0-0.1,0-0.1,0-0.2C1031.8,359.2,1048.3,347.6,1063.5,343.4z"/>
			<path class="st3" d="M1030.2,380c-0.2,0-0.3,0-0.5,0c-0.9-0.1-1.7-0.6-2.3-1.3c-0.6-0.7-0.8-1.7-0.7-2.6c0-0.1,0-0.2,0.1-0.3
				c3.7-17.5,20.9-29.6,36.3-33.8l0,0c2.6-0.7,5.1-1.3,7.4-1.8c2.4-0.5,4.2-1,5.9-1.4c1.8-0.5,3.7,0.6,4.2,2.4
				c0.3,0.9,0.2,1.8-0.3,2.6c-0.4,0.8-1.2,1.4-2.1,1.7c0,0-0.1,0-0.1,0c-1.4,0.4-2.8,0.7-4.2,1l-1.8,0.4c-2.3,0.5-4.8,1.1-7.1,1.7
				c-13.4,3.7-28.3,14-31.4,28.6C1033.2,378.9,1031.8,380,1030.2,380z M1063.9,344.8c-14.6,4-30.8,15.3-34.2,31.6
				c0,0.3,0,0.4,0.1,0.5c0,0.1,0.2,0.2,0.3,0.2c0.3,0,0.5-0.1,0.6-0.4c3.3-15.8,19.3-26.9,33.5-30.8c2.4-0.6,4.9-1.2,7.2-1.8
				l1.8-0.4c1.4-0.3,2.8-0.7,4.2-1c0.3-0.1,0.5-0.4,0.4-0.7c-0.1-0.3-0.4-0.5-0.6-0.4c-1.7,0.4-3.6,0.9-6,1.4
				C1068.9,343.5,1066.4,344.1,1063.9,344.8L1063.9,344.8z"/>
		</g>
		<g>
			<path class="st2" d="M192.5,417c-9.5,11.7-22.6,19-34.9,19.4c-4.7,0.2-8-1.2-10-4c-1.6-2.4-2.6-6-1.4-9.1c2.9-0.7,10-3.9,17.8-18
				l-3.5-2c-5.3,9.5-10,13.4-12.9,15c0.4-12.6-22.1-24.9-33.5-31l-2.7-1.4c-9.9-5.6-20.6-10.5-31-15.3c-16-7.4-32.5-15.1-46.6-25.2
				c-5.9-4.3-11-11.5-8.9-18c0.7-2.6,2.6-4.6,5-5.7c2.8-1.1,5.9-1,8.6,0.4c3.2,1.7,6.3,3.5,9.3,5.6c2.3,1.5,4.8,3.2,7.3,4.6
				c13.8,7.7,28.5,13.7,42.4,19.1l1.5-3.8c-8.9-3.5-18.1-7.2-27.2-11.4l0.2-0.5c-9.4-4-17.1-11.2-21.6-20.4
				c-7.1-14.2-10.2-35.7-2-47.8c1-1.5,3.2-4.1,6.2-4.5c5-0.7,10.3,3.6,12.3,8c1.5,3.2,1.7,6.9,1.9,10.5c0.7,19.9,8.9,38.3,22.7,50.5
				c-1,1.1-2,2.3-3,3.6l3.2,2.4c6.1-8.1,12.1-11.9,17.7-11.4l0.3-4c-5.8-0.5-11.6,2.3-17.3,8.3l1.7-1.9c-3.7-3.3-6.9-7-9.6-11
				l0.2-0.1c-8.7-34.5,14.5-51.4,15.5-52.1l0.2-0.2c2.3-2,4.9-3.7,7.8-4.9c5.5-2.2,10.2-1.3,13.8,2.7c0.4,0.5,0.7,1,0.9,1.6
				c0.1,1.4,0.2,2.8,0.5,4.2c0,0.6-0.1,1.1-0.2,1.7c-0.9,3.4-3.7,5.3-6.9,7.4c-3.2,2-6,4.4-8.4,7.2c-3.3,3.5-5.5,7.9-6.5,12.6
				c-1.1,6.4,1.3,12.8,6.7,18c6.4,6,14.7,9.4,23.4,9.6c0.7,0,1.4,0,2.1-0.1l-0.6,0.3l1.6,3.7c3.6-1.4,6.4-4.2,7.7-7.8
				c3.9-10-3.2-25.6-8.9-38.1c-2.7-5.8-5.2-11.4-5.8-14.8c0.1-1.5-0.1-3.1-0.5-4.5c-0.1-2.7,0.4-5.3,1.5-7.7
				c0.9-2.1,2.6-3.8,4.8-4.6c3.2-1,6.7,0.4,9.2,1.7c7.1,3.9,10.2,13.2,13,21.5c0.4,1.2,0.8,2.4,1.2,3.5c1.7,4.8,3.3,9.6,4.8,14.4
				c1.8,5.4,3.6,11,5.5,16.4c3.9,10.8,9.2,21,14.4,30.9c2.2,4.2,4.4,8.5,6.6,12.9c4,8.1,11.4,27.9-4.4,38l2.2,3.4
				c5.7-3.5,9.7-9.1,11-15.6c3.3,1.8,5.7,5,6.6,8.6C205.1,396.5,199.2,408.8,192.5,417z"/>
		</g>
		<g>
			<path class="st3" d="M206.9,386.7c-1.3-5.2-4.6-9.3-9.9-12c0.4-6.8-1.5-14.7-5.7-23.3c-2.1-4.4-4.4-8.7-6.6-13
				c-5.1-9.8-10.3-19.8-14.2-30.4c-1.9-5.4-3.7-10.9-5.5-16.3c-1.5-4.7-3.1-9.6-4.8-14.4c-0.4-1.1-0.8-2.3-1.2-3.5
				c-2.9-8.5-6.4-19.1-14.9-23.7c-4.5-2.5-8.8-3.2-12.3-2c-3.2,1.1-5.9,3.6-7.2,6.7c-0.6,1.3-1.1,2.8-1.4,4.2
				c-2.5-2.2-5.7-3.4-9-3.6c-8.3-0.3-15.6,6.2-16.6,7c-1.8,1.3-21.3,16.6-18.8,45.6c-3.8-8.5-5.9-17.6-6.2-26.9
				c-0.1-4-0.4-8.1-2.2-12C67.7,263.6,61,258,53.8,259c-3.3,0.5-6.5,2.7-8.9,6.2c-9.1,13.3-5.9,36.7,1.7,51.9
				c1.5,3.1,3.4,5.9,5.6,8.6c-0.8-0.5-1.5-1-2.2-1.5c-3.1-2.2-6.4-4.1-9.7-5.9c-3.7-1.9-8.1-2-11.9-0.4c-3.5,1.5-6.1,4.5-7.2,8.2
				c-2.8,9,3.9,17.8,10.4,22.5c14.5,10.4,31.1,18.1,47.3,25.6c10.3,4.7,20.9,9.7,30.7,15.2l2.7,1.5c9.7,5.3,35.4,19.2,30.9,29.7l0,0
				c-2.3,4.1-1.8,9.8,1.2,14.1c2.6,3.8,6.9,5.7,12.5,5.7h0.9c13.4-0.5,27.6-8.3,37.9-20.9C202.4,411.2,209.5,397.5,206.9,386.7z
				 M129.4,285.4c5.3,11.6,11.8,25.9,9,34.4c-1.1,0.8-2.3,1.4-3.6,1.6c-7.6,1.5-18-2-24.3-8.1c-3.1-3-6.6-8-5.5-14.5
				c0.8-4,2.7-7.6,5.5-10.5c2.2-2.5,4.7-4.7,7.6-6.5c2.7-1.5,5.1-3.6,7-6.1C126.3,278.5,127.8,281.8,129.4,285.4z M192.4,417
				c-9.5,11.7-22.6,19-34.9,19.4c-4.7,0.2-8-1.2-10-4c-1.6-2.3-2.3-5.1-1.7-7.9c0.2-0.7,0.7-1.2,1.3-1.5c3.1-1.1,9.1-4.7,15.8-15.9
				c0.6-0.9,0.3-2.2-0.7-2.8c0,0-0.1,0-0.1-0.1l0,0c-0.9-0.5-2.1-0.2-2.7,0.7c-2.3,4.3-5.4,8.1-9,11.4c-0.9,0.7-2.1,0.6-2.8-0.3
				c-0.2-0.2-0.3-0.5-0.4-0.8c-2.9-11.5-22.7-22.2-33.2-27.9l-2.7-1.4c-9.9-5.6-20.6-10.5-31-15.3c-16-7.4-32.5-15.1-46.6-25.2
				c-5.9-4.3-11-11.5-8.9-18c0.7-2.6,2.6-4.6,5-5.7c2.8-1.1,5.9-1,8.6,0.4c3.2,1.7,6.3,3.5,9.3,5.6c2.3,1.5,4.8,3.2,7.3,4.6
				c13.2,7.4,27.2,13.1,40.5,18.4c1,0.4,2.2-0.1,2.6-1.1c0,0,0,0,0,0l0,0c0.4-1-0.1-2.2-1.1-2.6c0,0,0,0,0,0
				c-5.3-2.1-19.9-8-21.5-8.8c-9.4-4.5-20.5-13.2-25.3-22.7c-7.1-14.2-10.2-35.7-2-47.8c1-1.5,3.2-4.1,6.2-4.5
				c5-0.7,10.3,3.6,12.3,8c1.5,3.2,1.7,6.9,1.9,10.5c0.7,19.2,8.4,37,21.2,49.2c0.8,0.7,0.9,1.9,0.2,2.8l-0.4,0.5
				c-0.7,0.8-0.6,2.1,0.2,2.8c0,0,0.1,0,0.1,0.1l0,0c0.9,0.6,2.1,0.5,2.8-0.3c5.1-6.3,10.1-9.6,14.8-9.9c1-0.1,1.8-0.8,1.9-1.8l0,0
				c0.1-1.1-0.7-2.1-1.8-2.2c-0.1,0-0.2,0-0.3,0c-5,0.3-10.1,3.1-15,8.3l0.4-0.4c0.7-0.8,0.7-2.1-0.1-2.8c-3-3-5.8-6.2-8.1-9.8
				l0.2-0.1c-8.7-34.5,14.5-51.4,15.5-52.1l0.2-0.2c2.3-2,4.9-3.7,7.8-4.9c5.5-2.2,10.2-1.3,13.8,2.7c0.4,0.5,0.7,1,0.9,1.6
				c0.1,1.4,0.2,2.8,0.5,4.2c0,0.6-0.1,1.2-0.2,1.7c-0.9,3.4-3.7,5.3-6.9,7.4c-3.2,2-6,4.4-8.4,7.2c-3.3,3.5-5.5,7.9-6.5,12.6
				c-1.1,6.4,1.3,12.8,6.7,18c6.4,6,14.7,9.4,23.4,9.6c0.7,0,1.4,0,2.1-0.1l-0.6,0.3l0.7,1.7c0.4,1,1.6,1.5,2.6,1.1
				c0.1,0,0.2-0.1,0.3-0.1c2.6-1.5,4.7-3.9,5.7-6.8c3.9-10-3.2-25.6-8.9-38.1c-2.6-5.7-5.1-11.1-5.8-14.6c0-0.1,0-0.3,0-0.4
				c0-1.4-0.1-2.7-0.4-4.1c0-0.1-0.1-0.3-0.1-0.5c-0.1-2.6,0.4-5.2,1.5-7.5c0.9-2.1,2.6-3.8,4.8-4.6c3.2-1,6.7,0.4,9.2,1.7
				c7.1,3.9,10.2,13.2,13,21.5c0.4,1.2,0.8,2.4,1.2,3.5c1.7,4.8,3.3,9.6,4.8,14.4c1.8,5.4,3.6,11,5.5,16.4
				c3.9,10.8,9.2,21,14.4,30.9c2.2,4.2,4.4,8.5,6.6,12.9c3.8,7.8,11,26.6-2.9,37c-0.8,0.6-1,1.8-0.5,2.7l0,0
				c0.6,0.9,1.8,1.2,2.8,0.6c0.1,0,0.1-0.1,0.2-0.1c3.9-2.9,6.9-7,8.4-11.6c0.3-1.1,1.4-1.7,2.5-1.4c0.3,0.1,0.6,0.2,0.8,0.5
				c2,1.8,3.4,4.1,4,6.7C205.1,396.5,199.2,408.8,192.4,417L192.4,417z"/>
			<path class="st3" d="M156.8,442c-6.1,0-10.8-2.2-13.7-6.4c-3.3-4.7-3.8-11-1.4-15.6c3.8-9.3-21.8-23.2-30.2-27.8l-2.7-1.5
				c-9.9-5.5-20.5-10.5-30.6-15.1c-16.2-7.5-33-15.3-47.5-25.7c-7-5-14.1-14.4-11-24.1c1.2-4.1,4.2-7.4,8.1-9.1
				c4.3-1.8,9.1-1.6,13.2,0.5c2,1,3.9,2.1,5.8,3.3c-0.5-0.9-1-1.7-1.4-2.6c-7.8-15.6-11.1-39.6-1.6-53.4c2.7-3.9,6.2-6.3,9.9-6.8
				c7.8-1.1,15.2,4.8,18.2,11.1c1.9,4.1,2.2,8.5,2.4,12.6c0.2,6.3,1.3,12.5,3.1,18.5c1.4-24,17.2-36.7,19.5-38.4
				c1.5-1.4,9-7.6,17.5-7.3c2.9,0.1,5.7,1,8.1,2.5c0.3-0.8,0.6-1.6,1-2.4c1.5-3.5,4.4-6.2,8.1-7.5c4-1.3,8.7-0.6,13.5,2.1
				c9,4.9,12.6,15.8,15.5,24.6c0.4,1.2,0.8,2.3,1.2,3.4c1.7,4.7,3.2,9.6,4.8,14.3l0.1,0.2c1.7,5.3,3.5,10.8,5.5,16.3
				c3.8,10.5,9,20.6,14.1,30.2l1.4,2.6c1.8,3.4,3.6,6.9,5.3,10.4c4.1,8.3,6.1,16.1,5.9,23c5.2,2.9,8.6,7.2,9.8,12.5l0,0
				c2.7,11.4-4.6,25.5-11.7,34.2c-10.5,12.9-25.1,20.9-38.9,21.4L156.8,442z M33.7,318.4c-1.7,0-3.4,0.3-4.9,1
				c-3.1,1.4-5.4,4-6.4,7.3c-2.6,8.3,3.7,16.4,9.9,20.9c14.3,10.3,31,18,47,25.5c10.1,4.6,20.8,9.7,30.8,15.2l2.7,1.5
				c17,9.2,36,21.2,31.5,31.6c0,0,0,0.1-0.1,0.1c-2,3.7-1.5,8.7,1.1,12.6c2.3,3.3,6.3,5.1,11.3,5.1h0.9c13-0.5,26.7-8.1,36.7-20.4
				c6.7-8.1,13.6-21.3,11.1-31.6c0,0,0,0,0,0c-1.1-4.8-4.2-8.5-9.2-11c-0.5-0.3-0.8-0.8-0.8-1.4c0.4-6.7-1.5-14.3-5.6-22.5
				c-1.7-3.5-3.5-7-5.2-10.4l-1.3-2.6c-5.1-9.8-10.4-19.9-14.2-30.6c-2-5.5-3.8-11.2-5.5-16.3l-0.1-0.2c-1.5-4.7-3.1-9.5-4.7-14.2
				c-0.4-1.1-0.8-2.3-1.2-3.5c-2.8-8.3-6.2-18.5-14.2-22.9c-4.1-2.3-8-2.9-11.2-1.9c-2.8,1-5.1,3.1-6.3,5.9c-0.6,1.3-1.1,2.6-1.3,4
				c-0.1,0.5-0.5,0.9-1,1.1c-0.5,0.2-1,0.1-1.4-0.3c-2.2-1.9-5.1-3.1-8.1-3.2c-7.4-0.2-14.2,5.5-15.5,6.6c0,0-0.1,0.1-0.1,0.1
				c-0.8,0.6-20.7,15.7-18.2,44.3c0.1,0.7-0.4,1.4-1.1,1.6c-0.7,0.2-1.4-0.2-1.7-0.8c-3.9-8.7-6-17.9-6.3-27.4
				c-0.1-3.8-0.4-7.8-2.1-11.4c-2.5-5.3-8.6-10.3-15.1-9.4c-2.9,0.4-5.7,2.4-7.9,5.6c-8.8,12.8-5.6,35.5,1.8,50.4
				c1.5,3,3.3,5.8,5.4,8.3c0.5,0.6,0.4,1.4,0,1.9c-0.5,0.5-1.3,0.6-1.9,0.3c-0.4-0.2-0.7-0.5-1.1-0.7c-0.4-0.3-0.8-0.5-1.1-0.7
				c-3.1-2.2-6.3-4.1-9.6-5.8C37.7,318.8,35.7,318.4,33.7,318.4z M156.8,438c-4.7,0-8.2-1.6-10.4-4.6c-1.8-2.6-2.6-5.9-2-9
				c0.3-1.3,1.2-2.2,2.3-2.6c2.8-1,8.5-4.3,15-15.3c0.2-0.3,0.1-0.6-0.2-0.8c-0.3-0.2-0.6-0.1-0.8,0.2c-2.4,4.4-5.5,8.3-9.3,11.7
				c-0.8,0.6-1.7,0.9-2.6,0.8c-0.9-0.1-1.8-0.6-2.3-1.3c-0.3-0.4-0.6-0.9-0.7-1.5c-2.7-10.8-22.8-21.7-32.4-26.9l-2.7-1.4
				c-10.1-5.7-21.2-10.8-30.9-15.3c-16-7.4-32.5-15-46.9-25.4c-6.4-4.6-11.8-12.4-9.5-19.6c0.9-2.9,3-5.4,5.8-6.6
				c3.2-1.3,6.8-1.1,9.8,0.4c3.3,1.7,6.4,3.6,9.5,5.7l0.1,0.1c2.3,1.5,4.6,3,7,4.4c13.5,7.5,27.9,13.4,40.3,18.3
				c0.2,0.1,0.3,0,0.4,0c0.1,0,0.2-0.1,0.3-0.3l0,0c0,0,0,0,0,0c0.1-0.2,0-0.3,0-0.4c0-0.1-0.1-0.2-0.3-0.3c0,0,0,0,0,0
				c-4.1-1.6-19.9-8-21.6-8.8c-9.3-4.4-20.9-13.3-26-23.4c-7.3-14.6-10.5-36.8-1.9-49.3c0.9-1.4,3.4-4.6,7.2-5.1
				c5.8-0.8,11.6,3.9,13.9,8.8c1.6,3.4,1.9,7.3,2,11c0.6,18.7,8.2,36.3,20.8,48.2c0.1,0.1,0.2,0.2,0.3,0.3c0,0,0,0,0,0l0.4-0.4
				c0.2-0.2,0.2-0.6,0-0.8c-3.1-3.1-5.9-6.4-8.4-10c-0.3-0.4-0.3-0.9-0.2-1.3c-8.3-34.5,14.7-51.8,16.3-52.9l0.2-0.1
				c2.4-2.1,5.2-3.9,8.2-5.1c6.1-2.4,11.4-1.3,15.5,3c0.6,0.7,1,1.4,1.2,2.2c0,0.1,0.1,0.2,0.1,0.3c0.1,1.4,0.2,2.7,0.5,4
				c0,0.1,0,0.2,0,0.3c0,0.7-0.1,1.3-0.3,2c-1,3.9-4.2,6.2-7.6,8.3c-3,1.9-5.8,4.2-8.1,6.9c-3.1,3.3-5.3,7.4-6.1,11.9
				c-1,5.9,1.2,11.8,6.2,16.7c6.1,5.7,14.1,9,22.4,9.2c0.6,0,1.3,0,1.9-0.1c0.7-0.1,1.4,0.4,1.6,1c0.1,0.4,0.1,0.9-0.2,1.2l0.3,0.6
				c0.1,0.2,0.2,0.3,0.3,0.3c0.1,0,0.2,0.1,0.4,0c2.4-1.4,4.2-3.5,5.2-6c3.7-9.4-3.3-24.7-8.9-37c-2.7-5.8-5.1-11.3-5.9-14.9
				c0,0,0-0.1,0-0.1c0-0.2,0-0.5,0-0.7c0-1.2-0.1-2.4-0.4-3.6c-0.1-0.2-0.1-0.5-0.1-0.7c-0.1-2.8,0.4-5.7,1.6-8.2
				c1-2.5,3.1-4.5,5.6-5.4c3.7-1.2,7.7,0.3,10.4,1.8c7.5,4.1,10.8,13.7,13.7,22.2l0.3,1c0.3,0.9,0.6,1.7,0.9,2.6
				c1.7,4.7,3.2,9.5,4.7,14.2l0.3,1c1.7,5.1,3.4,10.5,5.3,15.6c3.8,10.5,9,20.5,14,30.2l0.3,0.6c2.1,4,4.4,8.4,6.6,12.9
				c3.9,8,11.5,27.8-3.4,38.8c-0.2,0.2-0.3,0.5-0.1,0.7c0.1,0.2,0.3,0.2,0.3,0.3c0.1,0,0.2,0,0.4-0.1c0,0,0.1-0.1,0.1-0.1
				c3.7-2.7,6.5-6.5,7.9-10.9c0.5-1.8,2.5-2.8,4.3-2.3c0.5,0.2,1,0.4,1.4,0.8c2.2,2,3.7,4.6,4.4,7.5c2.2,9.2-3.8,21.9-10.8,30.4
				c0,0.1-0.1,0.1-0.1,0.2c-9.8,12.1-23.3,19.5-36,20C157.3,438,157,438,156.8,438z M161.2,402.7c0.6,0,1.1,0.1,1.7,0.4l0.1,0.1
				c1.6,1,2.1,3.2,1.1,4.8c-6.9,11.7-13.3,15.4-16.5,16.5c-0.2,0.1-0.4,0.2-0.4,0.4c-0.4,2.3,0.1,4.7,1.5,6.7
				c1.7,2.4,4.6,3.5,8.7,3.4c11.8-0.4,24.4-7.4,33.7-18.7c0-0.1,0.1-0.1,0.1-0.2c6.3-7.7,12.2-19.8,10.3-28c-0.5-2.3-1.8-4.4-3.5-6
				c-0.1-0.1-0.2-0.1-0.2-0.1c-0.3-0.1-0.6,0.1-0.7,0.4c-1.7,5-4.8,9.3-9,12.4c-0.1,0-0.2,0.1-0.3,0.2c-1.6,1-3.8,0.5-4.8-1.1
				c-1-1.5-0.6-3.5,0.8-4.6c13.1-9.7,6.1-27.9,2.5-35.2c-2.2-4.4-4.5-8.9-6.6-12.8l-0.3-0.6c-5.1-9.7-10.3-19.8-14.2-30.5
				c-1.9-5.2-3.6-10.5-5.3-15.7l-0.3-1c-1.5-4.6-3.1-9.5-4.7-14.1c-0.3-0.8-0.6-1.7-0.9-2.6l-0.3-1c-2.7-7.9-5.7-17-12.3-20.6
				c-2.2-1.2-5.3-2.5-8-1.6c-1.7,0.6-3.2,2-3.9,3.8c-1,2.2-1.5,4.5-1.4,6.9c0,0,0,0.1,0,0.1c0.4,1.5,0.5,3,0.5,4.5
				c0,0.1,0,0.1,0,0.2c0.7,3.2,3.1,8.6,5.7,14.2c5.8,12.8,13.1,28.7,9,39.3c-1.2,3.1-3.5,5.8-6.4,7.5c-0.2,0.1-0.3,0.2-0.5,0.2
				c-0.9,0.3-1.8,0.3-2.7,0c-0.9-0.4-1.5-1-1.8-1.9l-0.4-1c-0.2,0-0.3,0-0.5,0c-9.1-0.2-17.8-3.8-24.4-10
				c-5.7-5.6-8.2-12.4-7.1-19.3c1-5,3.4-9.6,6.9-13.4c2.5-2.9,5.5-5.4,8.7-7.4c3.1-1.9,5.5-3.6,6.3-6.5c0.1-0.4,0.1-0.8,0.2-1.3
				c-0.2-1.3-0.4-2.7-0.5-4c-0.1-0.3-0.3-0.6-0.5-0.9c-3.2-3.4-7.2-4.2-12.2-2.2c-2.7,1.1-5.2,2.7-7.4,4.6L101,267
				c0,0-0.1,0-0.1,0.1c-1,0.7-23.4,17-15,50.6c0,0.1,0,0.2,0,0.3c2.2,3.2,4.7,6.1,7.5,8.8c0.2,0.2,0.4,0.4,0.5,0.6
				c4.3-3.8,8.7-5.8,13.2-6.1c0.2,0,0.3,0,0.5,0c0.9,0.1,1.8,0.5,2.3,1.2c0.6,0.7,0.9,1.6,0.8,2.5c-0.1,1.7-1.6,3.1-3.3,3.2
				c-4.3,0.3-8.9,3.5-13.8,9.4c-1.2,1.4-3.3,1.7-4.8,0.6l-0.1-0.1c-1.5-1.2-1.7-3.4-0.4-4.9l0.4-0.5c0.2-0.2,0.2-0.5,0-0.7
				c-13.1-12.5-21-30.8-21.7-50.2c-0.1-3.4-0.4-7-1.7-9.9c-1.8-3.9-6.6-7.8-10.8-7.2c-2.6,0.4-4.6,3.1-5.1,3.9
				c-7.9,11.6-4.8,32.5,2.1,46.3c4.8,9.4,15.8,17.9,24.6,22.1c1.5,0.7,15.7,6.4,21.4,8.7c0,0,0.1,0,0.1,0.1l0,0
				c0.8,0.4,1.5,1,1.8,1.8c0.4,0.9,0.4,1.8,0,2.7c0,0,0,0,0,0.1c-0.3,0.8-1,1.5-1.8,1.9s-1.8,0.4-2.7,0
				c-12.5-4.9-27.1-10.8-40.7-18.5c-2.5-1.4-4.9-3-7.2-4.5l-0.2-0.1c-2.9-2-6-3.9-9.1-5.5c-2.3-1.2-5-1.3-7.3-0.3
				c-2,0.9-3.5,2.6-4.1,4.8c-1.8,5.9,2.9,12.4,8.4,16.4C48.8,354.4,65.1,362,81,369.3c9.8,4.5,20.9,9.7,31.1,15.4l2.7,1.4
				c10.8,5.9,30.9,16.7,33.9,28.8c0,0.1,0.1,0.2,0.1,0.3c0.2,0.2,0.5,0.3,0.7,0.1c3.4-3.1,6.4-6.8,8.6-10.9
				C158.8,403.3,160,402.7,161.2,402.7z M192.5,417L192.5,417L192.5,417z M91.8,332.4c0,0.7-0.3,1.4-0.8,2l-0.4,0.5
				c-0.2,0.2-0.2,0.6,0.1,0.8c0.3,0.2,0.6,0.2,0.8-0.1c5.4-6.6,10.7-10.1,15.9-10.5c0.3,0,0.5-0.2,0.5-0.5c0-0.3-0.2-0.6-0.5-0.6
				c-4.7,0.3-9.4,2.9-14.1,7.9C92.9,332.4,92.3,332.5,91.8,332.4z M131.3,323.2c-7.4,0-16.1-3.5-21.7-8.9c-2.7-2.7-7.2-8.2-5.9-15.8
				c0.9-4.3,2.9-8.2,5.9-11.3c2.2-2.6,4.9-4.9,7.9-6.7c2.6-1.5,4.8-3.4,6.6-5.7c0.3-0.4,0.8-0.7,1.4-0.6c0.5,0.1,1,0.4,1.2,0.9
				c1.2,2.8,2.6,6.1,4.2,9.5l0.1,0.2c5.4,11.7,12,26.4,9.1,35.5c-0.1,0.3-0.3,0.5-0.5,0.7c-1.2,1-2.7,1.6-4.3,1.9
				C133.9,323,132.6,323.2,131.3,323.2z M124.7,278.5c-1.7,1.8-3.7,3.4-5.9,4.6c-2.6,1.6-5.1,3.7-7.2,6.1c-2.6,2.8-4.4,6.2-5.1,9.9
				c-1,5.8,2.2,10.4,5.1,13.1c5.9,5.8,15.8,9.1,22.9,7.8c1-0.2,1.8-0.5,2.6-1c2.3-8.1-4-21.8-9.1-32.9c0,0,0,0,0,0l-0.1-0.2
				C126.9,283.2,125.7,280.8,124.7,278.5z M138.5,319.8L138.5,319.8L138.5,319.8z"/>
		</g>
		<g>
			<path class="st3" d="M136.5,343.4c-2.4-0.7-4.9-1.3-7.3-1.8c-2-0.5-4-0.9-5.9-1.4c-1.1-0.3-2.2,0.3-2.4,1.4l0,0
				c-0.3,1.1,0.3,2.2,1.4,2.5c0,0,0,0,0.1,0c2,0.5,4.1,1,6,1.5c2.4,0.5,4.8,1.1,7.1,1.8c14.1,3.9,29.3,14.5,32.5,29.7
				c0.2,1,1.2,1.7,2.2,1.5l0,0c1.1-0.1,1.9-1.2,1.7-2.3c0-0.1,0-0.1,0-0.2C168.2,359.2,151.8,347.6,136.5,343.4z"/>
			<path class="st3" d="M169.8,380c-1.6,0-3-1.1-3.4-2.7c-3.1-14.7-18-25-31.4-28.6c-2.3-0.6-4.8-1.2-7.1-1.7l-1.8-0.4
				c-1.4-0.3-2.8-0.7-4.2-1c-1.9-0.6-3-2.5-2.4-4.3c0.5-1.8,2.4-2.9,4.3-2.4c1.6,0.4,3.5,0.9,5.9,1.4c2.2,0.5,4.8,1.1,7.4,1.8l0,0
				c15.4,4.2,32.6,16.3,36.3,33.8c0,0.1,0,0.2,0.1,0.3c0.1,0.9-0.1,1.8-0.7,2.6c-0.6,0.7-1.4,1.2-2.3,1.3
				C170.1,380,170,380,169.8,380z M122.7,341.6c-0.2,0-0.4,0.2-0.5,0.4c-0.1,0.3,0.1,0.6,0.4,0.7c1.4,0.4,2.8,0.7,4.2,1l1.8,0.4
				c2.3,0.5,4.8,1.1,7.2,1.8c14.3,3.9,30.2,15,33.5,30.8c0.1,0.2,0.3,0.4,0.6,0.4c0.2,0,0.3-0.1,0.4-0.2c0-0.1,0.1-0.2,0.1-0.4
				c-3.4-16.3-19.7-27.7-34.2-31.7l0,0c-2.5-0.7-5.1-1.3-7.2-1.8c-2.4-0.5-4.3-1-6-1.4C122.8,341.6,122.8,341.6,122.7,341.6z"/>
		</g>
		<g>
			<path class="st6" d="M790.6,792.5c0.4,1.1,1.1,2,2,2.6c0.2,0.1,0.5,0.2,1-0.1c1.9-1.1,3.1-3.7,4.3-6.3c4.8-10.5,6.8-23.5,6-39.8
				c-1.6-32.8-13.6-62.1-23.3-80.8c-8.2-15.8-18.2-29.3-29.7-40.1c-2.9-2.8-5.1-4.3-6.9-3.6l0,0c-1.7,0.8-2.8,2.5-2.7,4.3
				c10,9.6,18.9,20.2,26.5,31.8c13.3,20.2,22.7,42.6,28,66.2v0.2c3.6,20.6,3,40.2-1.8,58.5l-0.1,0.3
				C793.1,788,792,790.3,790.6,792.5z"/>
		</g>
	</g>
</g>
</svg>
